STARTFONT 2.1
COMMENT
COMMENT Converted from OpenType font "Xuong.otf" by "otf2bdf 3.0".
COMMENT
FONT -FreeType-Xuong-Bold-R-Normal--25-180-100-100-P-124-ISO10646-1
SIZE 18 100 100
FONTBOUNDINGBOX 27 31 -2 -4
STARTPROPERTIES 19
FOUNDRY "FreeType"
FAMILY_NAME "Xuong"
WEIGHT_NAME "Bold"
SLANT "R"
SETWIDTH_NAME "Normal"
ADD_STYLE_NAME ""
PIXEL_SIZE 25
POINT_SIZE 180
RESOLUTION_X 100
RESOLUTION_Y 100
SPACING "P"
AVERAGE_WIDTH 124
CHARSET_REGISTRY "ISO10646"
CHARSET_ENCODING "1"
FONT_ASCENT 22
FONT_DESCENT 4
COPYRIGHT "-FreeType-Xuong-Bold-R-Normal--25-180-100-100-P-124-ISO10646-1"
_OTF_FONTFILE "Xuong.otf"
_OTF_PSNAME "Xuong"
ENDPROPERTIES
CHARS 445
STARTCHAR 0000
ENCODING 0
SWIDTH 0 0
DWIDTH 0 0
BBX 0 0 0 0
BITMAP
ENDCHAR
STARTCHAR 000D
ENCODING 13
SWIDTH 240 0
DWIDTH 6 0
BBX 0 0 0 0
BITMAP
ENDCHAR
STARTCHAR 0020
ENCODING 32
SWIDTH 240 0
DWIDTH 6 0
BBX 0 0 0 0
BITMAP
ENDCHAR
STARTCHAR 0021
ENCODING 33
SWIDTH 160 0
DWIDTH 4 0
BBX 3 18 1 0
BITMAP
C0
E0
E0
E0
E0
E0
E0
C0
C0
C0
C0
C0
C0
C0
00
E0
E0
E0
ENDCHAR
STARTCHAR 0022
ENCODING 34
SWIDTH 240 0
DWIDTH 6 0
BBX 6 7 0 11
BITMAP
EC
EC
EC
EC
EC
4C
4C
ENDCHAR
STARTCHAR 0023
ENCODING 35
SWIDTH 720 0
DWIDTH 18 0
BBX 18 18 0 0
BITMAP
01C600
01C600
01CE00
018E00
038C00
3FFFC0
3FFFC0
3FFFC0
071800
073800
FFFF80
FFFF80
FFFF80
0E7000
0C7000
1C6000
1C6000
1CE000
ENDCHAR
STARTCHAR 0024
ENCODING 36
SWIDTH 520 0
DWIDTH 13 0
BBX 12 22 1 -2
BITMAP
0600
0600
7FC0
FFC0
FFE0
FFF0
F0F0
F800
FC00
7E00
3F00
1F80
0FC0
07E0
03F0
E1F0
FFF0
FFF0
7FF0
3FE0
0600
0600
ENDCHAR
STARTCHAR 0025
ENCODING 37
SWIDTH 600 0
DWIDTH 15 0
BBX 13 18 1 0
BITMAP
7870
FC70
FC60
CCE0
FCC0
FDC0
0180
0380
0300
0700
0700
0E00
0EF8
1DF8
1DD8
39D8
39F8
70F8
ENDCHAR
STARTCHAR 0026
ENCODING 38
SWIDTH 680 0
DWIDTH 17 0
BBX 16 18 1 0
BITMAP
1FC0
1FE0
3FF0
7FF0
7870
7870
78F0
7FF0
FFE0
F1E2
F0FF
F0FF
F07F
F0FC
FFFC
FFFE
7FEF
3F8F
ENDCHAR
STARTCHAR 0027
ENCODING 39
SWIDTH 120 0
DWIDTH 3 0
BBX 3 7 0 11
BITMAP
E0
E0
E0
E0
E0
40
40
ENDCHAR
STARTCHAR 0028
ENCODING 40
SWIDTH 200 0
DWIDTH 5 0
BBX 4 19 1 -1
BITMAP
30
70
60
E0
C0
C0
C0
C0
C0
C0
C0
C0
C0
C0
C0
E0
60
70
30
ENDCHAR
STARTCHAR 0029
ENCODING 41
SWIDTH 200 0
DWIDTH 5 0
BBX 5 19 0 -1
BITMAP
E0
60
70
38
38
38
38
38
38
38
38
38
38
38
38
30
70
E0
E0
ENDCHAR
STARTCHAR 002A
ENCODING 42
SWIDTH 360 0
DWIDTH 9 0
BBX 8 9 1 9
BITMAP
18
18
DB
FF
7E
FF
FF
DB
18
ENDCHAR
STARTCHAR 002B
ENCODING 43
SWIDTH 400 0
DWIDTH 10 0
BBX 10 10 0 4
BITMAP
0E00
0E00
0E00
0E00
FFC0
FFC0
FFC0
0E00
0E00
0E00
ENDCHAR
STARTCHAR 002C
ENCODING 44
SWIDTH 160 0
DWIDTH 4 0
BBX 4 6 0 -2
BITMAP
60
70
70
70
60
E0
ENDCHAR
STARTCHAR 002D
ENCODING 45
SWIDTH 400 0
DWIDTH 10 0
BBX 10 2 0 9
BITMAP
FFC0
FFC0
ENDCHAR
STARTCHAR 002E
ENCODING 46
SWIDTH 160 0
DWIDTH 4 0
BBX 4 3 0 0
BITMAP
F0
F0
F0
ENDCHAR
STARTCHAR 002F
ENCODING 47
SWIDTH 240 0
DWIDTH 6 0
BBX 7 20 0 -1
BITMAP
06
0E
0E
0C
0C
1C
1C
18
38
38
38
30
70
70
60
60
E0
E0
C0
C0
ENDCHAR
STARTCHAR 0030
ENCODING 48
SWIDTH 560 0
DWIDTH 14 0
BBX 13 18 1 0
BITMAP
3FE0
7FE0
7FF0
FFF8
F0F8
F078
F078
F078
F078
F078
F078
F078
F078
F0F8
FFF8
FFF0
7FF0
3FE0
ENDCHAR
STARTCHAR 0031
ENCODING 49
SWIDTH 400 0
DWIDTH 10 0
BBX 8 18 1 0
BITMAP
0E
1F
3F
7F
FF
FF
EF
CF
0F
0F
0F
0F
0F
0F
0F
0F
0F
0F
ENDCHAR
STARTCHAR 0032
ENCODING 50
SWIDTH 520 0
DWIDTH 13 0
BBX 12 18 1 0
BITMAP
3FE0
7FF0
7FF0
FFF0
F8F0
F0F0
01F0
03F0
07E0
0FC0
1F80
3F00
3E00
7C00
FFE0
FFF0
FFF0
FFF0
ENDCHAR
STARTCHAR 0033
ENCODING 51
SWIDTH 520 0
DWIDTH 13 0
BBX 11 18 1 0
BITMAP
FFE0
FFE0
7FE0
7FE0
01E0
01E0
01E0
3FE0
3FE0
3FE0
3FE0
01E0
01E0
01E0
3FE0
7FE0
FFE0
FFE0
ENDCHAR
STARTCHAR 0034
ENCODING 52
SWIDTH 560 0
DWIDTH 14 0
BBX 12 18 1 0
BITMAP
07C0
07E0
0FE0
0FE0
1FE0
3FE0
3DE0
7DE0
79E0
F9E0
F1E0
FFF0
FFF0
FFF0
FFF0
01E0
01E0
01E0
ENDCHAR
STARTCHAR 0035
ENCODING 53
SWIDTH 480 0
DWIDTH 12 0
BBX 11 18 1 0
BITMAP
7FE0
FFE0
FFC0
FFC0
F000
F000
F000
FFE0
FFE0
FFE0
FFE0
01E0
01E0
01E0
3FE0
7FE0
FFE0
FFE0
ENDCHAR
STARTCHAR 0036
ENCODING 54
SWIDTH 520 0
DWIDTH 13 0
BBX 12 18 1 0
BITMAP
7FC0
FFC0
FFE0
FFF0
F0F0
F0F0
F000
F000
FFE0
FFF0
FFF0
FFF0
F0F0
F0F0
FFF0
FFF0
FFF0
FFE0
ENDCHAR
STARTCHAR 0037
ENCODING 55
SWIDTH 480 0
DWIDTH 12 0
BBX 11 18 0 0
BITMAP
FFC0
FFE0
7FE0
3FE0
03E0
03E0
03C0
03C0
07C0
0780
0780
0F80
0F00
0F00
1F00
1F00
1E00
1E00
ENDCHAR
STARTCHAR 0038
ENCODING 56
SWIDTH 560 0
DWIDTH 14 0
BBX 13 18 1 0
BITMAP
3FE0
7FE0
7FF0
FFF8
F8F8
F078
F078
F0F8
FFF0
7FF0
F8F8
F078
F078
F0F8
FFF8
FFF0
7FF0
3FE0
ENDCHAR
STARTCHAR 0039
ENCODING 57
SWIDTH 520 0
DWIDTH 13 0
BBX 12 18 1 0
BITMAP
7FE0
FFF0
FFF0
FFF0
F1F0
F0F0
F1F0
FFF0
FFF0
FFF0
00F0
00F0
00F0
F0F0
FFF0
FFF0
7FF0
3FE0
ENDCHAR
STARTCHAR 003A
ENCODING 58
SWIDTH 160 0
DWIDTH 4 0
BBX 4 13 0 0
BITMAP
F0
F0
F0
F0
00
00
00
00
00
00
F0
F0
F0
ENDCHAR
STARTCHAR 003B
ENCODING 59
SWIDTH 160 0
DWIDTH 4 0
BBX 4 15 0 -2
BITMAP
70
70
70
70
00
00
00
00
00
60
70
70
70
E0
C0
ENDCHAR
STARTCHAR 003C
ENCODING 60
SWIDTH 360 0
DWIDTH 9 0
BBX 9 13 0 4
BITMAP
0180
0780
1F80
3F00
FC00
F000
E000
F800
7E00
1F80
0780
0380
0080
ENDCHAR
STARTCHAR 003D
ENCODING 61
SWIDTH 400 0
DWIDTH 10 0
BBX 10 7 0 5
BITMAP
FFC0
FFC0
FFC0
0000
FFC0
FFC0
FFC0
ENDCHAR
STARTCHAR 003E
ENCODING 62
SWIDTH 360 0
DWIDTH 9 0
BBX 9 14 0 3
BITMAP
8000
E000
F800
FC00
3F00
0F80
0380
0180
0780
1F80
7E00
F800
E000
C000
ENDCHAR
STARTCHAR 003F
ENCODING 63
SWIDTH 520 0
DWIDTH 13 0
BBX 11 18 1 0
BITMAP
3FE0
7FE0
7FE0
FFE0
F1E0
E1E0
01E0
03C0
0780
0780
0F00
0F00
0F00
0000
0000
0F00
0F00
0F00
ENDCHAR
STARTCHAR 0040
ENCODING 64
SWIDTH 760 0
DWIDTH 19 0
BBX 18 21 1 -3
BITMAP
7FFF80
FFFFC0
FFFFC0
E001C0
E1E1C0
E3F1C0
E3F1C0
E331C0
E331C0
E739C0
E739C0
E739C0
E7F9C0
E7F9C0
EE1FC0
EE1FC0
EE1F80
E00000
FFE000
FFE000
FFE000
ENDCHAR
STARTCHAR 0041
ENCODING 65
SWIDTH 560 0
DWIDTH 14 0
BBX 14 18 0 0
BITMAP
0FC0
0FE0
1FE0
1FF0
1CF0
1C70
1C70
3C70
3C78
3878
3878
3C78
7FF8
7FFC
783C
783C
703C
F03C
ENDCHAR
STARTCHAR 0042
ENCODING 66
SWIDTH 560 0
DWIDTH 14 0
BBX 13 18 1 0
BITMAP
FFE0
FFE0
FFF0
FFF8
F0F8
F078
F078
F0F8
FFF0
FFF0
FFF8
F0F8
F078
F078
F0F8
FFF0
FFF0
FFE0
ENDCHAR
STARTCHAR 0043
ENCODING 67
SWIDTH 520 0
DWIDTH 13 0
BBX 12 18 1 0
BITMAP
FFC0
FFC0
FFE0
FFF0
F1F0
F000
F000
F000
F000
F000
F000
F000
F000
F0F0
FFF0
FFE0
FFE0
FFC0
ENDCHAR
STARTCHAR 0044
ENCODING 68
SWIDTH 560 0
DWIDTH 14 0
BBX 13 18 1 0
BITMAP
FFE0
FFE0
FFF0
FFF8
F0F8
F078
F078
F078
F078
F078
F078
F078
F078
F0F8
FFF8
FFF0
FFF0
FFE0
ENDCHAR
STARTCHAR 0045
ENCODING 69
SWIDTH 520 0
DWIDTH 13 0
BBX 12 18 1 0
BITMAP
FFC0
FFC0
FFE0
FFF0
F0F0
F000
F000
F000
FF80
FF80
FF80
F000
F000
F0F0
FFF0
FFE0
FFE0
FFC0
ENDCHAR
STARTCHAR 0046
ENCODING 70
SWIDTH 480 0
DWIDTH 12 0
BBX 11 18 1 0
BITMAP
FF80
FFC0
FFC0
FFE0
F1E0
F000
F000
F000
FF80
FF80
FF80
FF80
F000
F000
F000
F000
F000
F000
ENDCHAR
STARTCHAR 0047
ENCODING 71
SWIDTH 520 0
DWIDTH 13 0
BBX 12 18 1 0
BITMAP
FFC0
FFE0
FFE0
FFF0
F0F0
F000
F000
F000
F3F0
F3F0
F3F0
F3F0
F0F0
F0F0
FFF0
FFF0
FFF0
FFB0
ENDCHAR
STARTCHAR 0048
ENCODING 72
SWIDTH 560 0
DWIDTH 14 0
BBX 13 18 1 0
BITMAP
F078
F078
F078
F078
F078
F078
F0F8
FFF8
FFF8
FFF8
FFF8
F0F8
F078
F078
F078
F078
F078
F078
ENDCHAR
STARTCHAR 0049
ENCODING 73
SWIDTH 200 0
DWIDTH 5 0
BBX 4 18 1 0
BITMAP
F0
F0
F0
F0
F0
F0
F0
F0
F0
F0
F0
F0
F0
F0
F0
F0
F0
F0
ENDCHAR
STARTCHAR 004A
ENCODING 74
SWIDTH 480 0
DWIDTH 12 0
BBX 11 18 1 0
BITMAP
3FE0
3FE0
3FE0
3FE0
01E0
01E0
01E0
01E0
01E0
01E0
01E0
01E0
01E0
F1E0
FFE0
FFE0
7FE0
3FE0
ENDCHAR
STARTCHAR 004B
ENCODING 75
SWIDTH 560 0
DWIDTH 14 0
BBX 12 18 1 0
BITMAP
F0F0
F0F0
F1F0
F3F0
F3E0
F7C0
FF80
FF80
FF00
FF00
FF00
FF80
F7C0
F3C0
F3E0
F1F0
F0F0
F0F0
ENDCHAR
STARTCHAR 004C
ENCODING 76
SWIDTH 400 0
DWIDTH 10 0
BBX 9 18 1 0
BITMAP
F000
F000
F000
F000
F000
F000
F000
F000
F000
F000
F000
F000
F000
F000
FF80
FF80
FF00
FF00
ENDCHAR
STARTCHAR 004D
ENCODING 77
SWIDTH 680 0
DWIDTH 17 0
BBX 15 18 1 0
BITMAP
3C78
7C7C
7C7E
FE7E
FE7E
FEFE
F6FE
F6FE
F6FE
F7DE
F7DE
F7DE
F7DE
F3DE
F01E
F01E
F01E
F01E
ENDCHAR
STARTCHAR 004E
ENCODING 78
SWIDTH 560 0
DWIDTH 14 0
BBX 12 18 1 0
BITMAP
30F0
70F0
78F0
F8F0
FCF0
FCF0
FEF0
FEF0
FEF0
F7F0
F7F0
F7F0
F3F0
F3F0
F1F0
F1F0
F0E0
F0E0
ENDCHAR
STARTCHAR 004F
ENCODING 79
SWIDTH 600 0
DWIDTH 15 0
BBX 14 18 1 0
BITMAP
3FF0
7FF0
7FF8
FFFC
F07C
F03C
F03C
F03C
F03C
F03C
F03C
F03C
F03C
F07C
FFFC
FFF8
7FF8
3FF0
ENDCHAR
STARTCHAR 0050
ENCODING 80
SWIDTH 520 0
DWIDTH 13 0
BBX 12 18 1 0
BITMAP
FFC0
FFC0
FFE0
FFF0
F1F0
F0F0
F0F0
F0F0
FFF0
FFF0
FFE0
FFC0
F000
F000
F000
F000
F000
F000
ENDCHAR
STARTCHAR 0051
ENCODING 81
SWIDTH 640 0
DWIDTH 16 0
BBX 15 18 1 0
BITMAP
3FF0
7FF0
7FF8
FFFC
F07C
F03C
F03C
F03C
F03C
F03C
F03C
F03C
F03C
F07C
FFFE
FFFE
7FFE
3FFC
ENDCHAR
STARTCHAR 0052
ENCODING 82
SWIDTH 520 0
DWIDTH 13 0
BBX 12 18 1 0
BITMAP
FFC0
FFC0
FFE0
FFF0
F1F0
F0F0
F0F0
F1F0
FFE0
FFC0
FFC0
F3C0
F3C0
F1E0
F1E0
F1F0
F0F0
F0F0
ENDCHAR
STARTCHAR 0053
ENCODING 83
SWIDTH 520 0
DWIDTH 13 0
BBX 12 18 1 0
BITMAP
7FC0
FFC0
FFE0
FFF0
F0F0
F800
FC00
7E00
3F00
1F80
0FC0
07E0
03F0
E1F0
FFF0
FFF0
7FF0
3FE0
ENDCHAR
STARTCHAR 0054
ENCODING 84
SWIDTH 520 0
DWIDTH 13 0
BBX 13 18 0 0
BITMAP
3FE0
7FF0
7FF8
FFF8
F7B8
C798
0780
0780
0780
0780
0780
0780
0780
0780
0780
0780
0780
0780
ENDCHAR
STARTCHAR 0055
ENCODING 85
SWIDTH 600 0
DWIDTH 15 0
BBX 13 18 1 0
BITMAP
F078
F078
F078
F078
F078
F078
F078
F078
F078
F078
F078
F078
F078
F078
FFF8
FFF8
7FF0
3FF0
ENDCHAR
STARTCHAR 0056
ENCODING 86
SWIDTH 560 0
DWIDTH 14 0
BBX 14 18 0 0
BITMAP
F03C
F03C
703C
703C
7838
7838
7878
3878
3878
3870
3C70
3C70
1C70
1CF0
1FE0
1FE0
1FE0
0FE0
ENDCHAR
STARTCHAR 0057
ENCODING 87
SWIDTH 880 0
DWIDTH 22 0
BBX 20 18 1 0
BITMAP
F000F0
F000F0
F000F0
F000F0
F801F0
7871E0
78F1E0
78F9E0
79F9E0
7DF9E0
3DFBC0
3DDFC0
3F9FC0
3F9FC0
1F9FC0
1F8F80
1F8F80
1F0F80
ENDCHAR
STARTCHAR 0058
ENCODING 88
SWIDTH 600 0
DWIDTH 15 0
BBX 13 18 1 0
BITMAP
F038
F078
F878
78F8
78F0
3DF0
3DE0
1FE0
1FC0
1FE0
3FE0
3DE0
3DF0
7CF0
78F8
F878
F078
F078
ENDCHAR
STARTCHAR 0059
ENCODING 89
SWIDTH 440 0
DWIDTH 11 0
BBX 12 18 0 0
BITMAP
F0F0
F0F0
F1F0
79E0
79E0
7BC0
3FC0
3F80
1F80
1F80
0F00
0F00
0F00
0F00
0F00
0F00
0F00
0F00
ENDCHAR
STARTCHAR 005A
ENCODING 90
SWIDTH 560 0
DWIDTH 14 0
BBX 12 18 1 0
BITMAP
FFC0
FFE0
FFF0
FFF0
01E0
03E0
07C0
07C0
0F80
1F00
1F00
3E00
3E00
7C00
FFF0
FFF0
7FF0
3FF0
ENDCHAR
STARTCHAR 005B
ENCODING 91
SWIDTH 240 0
DWIDTH 6 0
BBX 6 19 0 -1
BITMAP
FC
F8
E0
E0
E0
E0
E0
E0
E0
E0
E0
E0
E0
E0
E0
E0
E0
FC
FC
ENDCHAR
STARTCHAR 005C
ENCODING 92
SWIDTH 240 0
DWIDTH 6 0
BBX 8 20 -1 -1
BITMAP
E0
60
60
70
70
30
38
38
38
18
1C
1C
0C
0C
0E
0E
06
06
07
07
ENDCHAR
STARTCHAR 005D
ENCODING 93
SWIDTH 240 0
DWIDTH 6 0
BBX 6 19 0 -1
BITMAP
FC
7C
1C
1C
1C
1C
1C
1C
1C
1C
1C
1C
1C
1C
1C
1C
1C
7C
FC
ENDCHAR
STARTCHAR 005E
ENCODING 94
SWIDTH 560 0
DWIDTH 14 0
BBX 13 9 1 9
BITMAP
0F00
0F80
1FC0
1DC0
39E0
38E0
70F0
F070
E078
ENDCHAR
STARTCHAR 005F
ENCODING 95
SWIDTH 400 0
DWIDTH 10 0
BBX 10 3 0 0
BITMAP
FFC0
FFC0
FFC0
ENDCHAR
STARTCHAR 0060
ENCODING 96
SWIDTH 360 0
DWIDTH 9 0
BBX 9 2 0 18
BITMAP
F800
FF80
ENDCHAR
STARTCHAR 0061
ENCODING 97
SWIDTH 560 0
DWIDTH 14 0
BBX 14 18 0 0
BITMAP
0FC0
0FE0
1FE0
1FF0
1CF0
1C70
1C70
3C70
3C78
3878
3878
3C78
7FF8
7FFC
783C
783C
703C
F03C
ENDCHAR
STARTCHAR 0062
ENCODING 98
SWIDTH 560 0
DWIDTH 14 0
BBX 13 18 1 0
BITMAP
FFE0
FFE0
FFF0
FFF8
F0F8
F078
F078
F0F8
FFF0
FFF0
FFF8
F0F8
F078
F078
F0F8
FFF0
FFF0
FFE0
ENDCHAR
STARTCHAR 0063
ENCODING 99
SWIDTH 520 0
DWIDTH 13 0
BBX 12 18 1 0
BITMAP
FFC0
FFC0
FFE0
FFF0
F1F0
F000
F000
F000
F000
F000
F000
F000
F000
F0F0
FFF0
FFE0
FFE0
FFC0
ENDCHAR
STARTCHAR 0064
ENCODING 100
SWIDTH 560 0
DWIDTH 14 0
BBX 13 18 1 0
BITMAP
FFE0
FFE0
FFF0
FFF8
F0F8
F078
F078
F078
F078
F078
F078
F078
F078
F0F8
FFF8
FFF0
FFF0
FFE0
ENDCHAR
STARTCHAR 0065
ENCODING 101
SWIDTH 520 0
DWIDTH 13 0
BBX 12 18 1 0
BITMAP
FFC0
FFC0
FFE0
FFF0
F0F0
F000
F000
F000
FF80
FF80
FF80
F000
F000
F0F0
FFF0
FFE0
FFE0
FFC0
ENDCHAR
STARTCHAR 0066
ENCODING 102
SWIDTH 480 0
DWIDTH 12 0
BBX 11 18 1 0
BITMAP
FF80
FFC0
FFC0
FFE0
F1E0
F000
F000
F000
FF80
FF80
FF80
FF80
F000
F000
F000
F000
F000
F000
ENDCHAR
STARTCHAR 0067
ENCODING 103
SWIDTH 520 0
DWIDTH 13 0
BBX 12 18 1 0
BITMAP
FFC0
FFE0
FFE0
FFF0
F0F0
F000
F000
F000
F3F0
F3F0
F3F0
F3F0
F0F0
F0F0
FFF0
FFF0
FFF0
FFB0
ENDCHAR
STARTCHAR 0068
ENCODING 104
SWIDTH 560 0
DWIDTH 14 0
BBX 13 18 1 0
BITMAP
F078
F078
F078
F078
F078
F078
F0F8
FFF8
FFF8
FFF8
FFF8
F0F8
F078
F078
F078
F078
F078
F078
ENDCHAR
STARTCHAR 0069
ENCODING 105
SWIDTH 200 0
DWIDTH 5 0
BBX 4 18 1 0
BITMAP
F0
F0
F0
F0
F0
F0
F0
F0
F0
F0
F0
F0
F0
F0
F0
F0
F0
F0
ENDCHAR
STARTCHAR 006A
ENCODING 106
SWIDTH 480 0
DWIDTH 12 0
BBX 11 18 1 0
BITMAP
3FE0
3FE0
3FE0
3FE0
01E0
01E0
01E0
01E0
01E0
01E0
01E0
01E0
01E0
F1E0
FFE0
FFE0
7FE0
3FE0
ENDCHAR
STARTCHAR 006B
ENCODING 107
SWIDTH 560 0
DWIDTH 14 0
BBX 12 18 1 0
BITMAP
F0F0
F0F0
F1F0
F3F0
F3E0
F7C0
FF80
FF80
FF00
FF00
FF00
FF80
F7C0
F3C0
F3E0
F1F0
F0F0
F0F0
ENDCHAR
STARTCHAR 006C
ENCODING 108
SWIDTH 400 0
DWIDTH 10 0
BBX 9 18 1 0
BITMAP
F000
F000
F000
F000
F000
F000
F000
F000
F000
F000
F000
F000
F000
F000
FF80
FF80
FF00
FF00
ENDCHAR
STARTCHAR 006D
ENCODING 109
SWIDTH 680 0
DWIDTH 17 0
BBX 15 18 1 0
BITMAP
3C78
7C7C
7C7E
FE7E
FE7E
FEFE
F6FE
F6FE
F6FE
F7DE
F7DE
F7DE
F7DE
F3DE
F01E
F01E
F01E
F01E
ENDCHAR
STARTCHAR 006E
ENCODING 110
SWIDTH 560 0
DWIDTH 14 0
BBX 12 18 1 0
BITMAP
30F0
70F0
78F0
F8F0
FCF0
FCF0
FEF0
FEF0
FEF0
F7F0
F7F0
F7F0
F3F0
F3F0
F1F0
F1F0
F0E0
F0E0
ENDCHAR
STARTCHAR 006F
ENCODING 111
SWIDTH 600 0
DWIDTH 15 0
BBX 14 18 1 0
BITMAP
3FF0
7FF0
7FF8
FFFC
F07C
F03C
F03C
F03C
F03C
F03C
F03C
F03C
F03C
F07C
FFFC
FFF8
7FF8
3FF0
ENDCHAR
STARTCHAR 0070
ENCODING 112
SWIDTH 520 0
DWIDTH 13 0
BBX 12 18 1 0
BITMAP
FFC0
FFC0
FFE0
FFF0
F1F0
F0F0
F0F0
F0F0
FFF0
FFF0
FFE0
FFC0
F000
F000
F000
F000
F000
F000
ENDCHAR
STARTCHAR 0071
ENCODING 113
SWIDTH 640 0
DWIDTH 16 0
BBX 15 18 1 0
BITMAP
3FF0
7FF0
7FF8
FFFC
F07C
F03C
F03C
F03C
F03C
F03C
F03C
F03C
F03C
F07C
FFFE
FFFE
7FFE
3FFC
ENDCHAR
STARTCHAR 0072
ENCODING 114
SWIDTH 520 0
DWIDTH 13 0
BBX 12 18 1 0
BITMAP
FFC0
FFC0
FFE0
FFF0
F1F0
F0F0
F0F0
F1F0
FFE0
FFC0
FFC0
F3C0
F3C0
F1E0
F1E0
F1F0
F0F0
F0F0
ENDCHAR
STARTCHAR 0073
ENCODING 115
SWIDTH 520 0
DWIDTH 13 0
BBX 12 18 1 0
BITMAP
7FC0
FFC0
FFE0
FFF0
F0F0
F800
FC00
7E00
3F00
1F80
0FC0
07E0
03F0
E1F0
FFF0
FFF0
7FF0
3FE0
ENDCHAR
STARTCHAR 0074
ENCODING 116
SWIDTH 520 0
DWIDTH 13 0
BBX 13 18 0 0
BITMAP
3FE0
7FF0
7FF8
FFF8
F7B8
C798
0780
0780
0780
0780
0780
0780
0780
0780
0780
0780
0780
0780
ENDCHAR
STARTCHAR 0075
ENCODING 117
SWIDTH 600 0
DWIDTH 15 0
BBX 13 18 1 0
BITMAP
F078
F078
F078
F078
F078
F078
F078
F078
F078
F078
F078
F078
F078
F078
FFF8
FFF8
7FF0
3FF0
ENDCHAR
STARTCHAR 0076
ENCODING 118
SWIDTH 560 0
DWIDTH 14 0
BBX 14 18 0 0
BITMAP
F03C
F03C
703C
703C
7838
7838
7878
3878
3878
3870
3C70
3C70
1C70
1CF0
1FE0
1FE0
1FE0
0FE0
ENDCHAR
STARTCHAR 0077
ENCODING 119
SWIDTH 880 0
DWIDTH 22 0
BBX 20 18 1 0
BITMAP
F000F0
F000F0
F000F0
F000F0
F801F0
7871E0
78F1E0
78F9E0
79F9E0
7DF9E0
3DFBC0
3DDFC0
3F9FC0
3F9FC0
1F9FC0
1F8F80
1F8F80
1F0F80
ENDCHAR
STARTCHAR 0078
ENCODING 120
SWIDTH 600 0
DWIDTH 15 0
BBX 13 18 1 0
BITMAP
F038
F078
F878
78F8
78F0
3DF0
3DE0
1FE0
1FC0
1FE0
3FE0
3DE0
3DF0
7CF0
78F8
F878
F078
F078
ENDCHAR
STARTCHAR 0079
ENCODING 121
SWIDTH 440 0
DWIDTH 11 0
BBX 12 18 0 0
BITMAP
F0F0
F0F0
F1F0
79E0
79E0
7BC0
3FC0
3F80
1F80
1F80
0F00
0F00
0F00
0F00
0F00
0F00
0F00
0F00
ENDCHAR
STARTCHAR 007A
ENCODING 122
SWIDTH 560 0
DWIDTH 14 0
BBX 12 18 1 0
BITMAP
FFC0
FFE0
FFF0
FFF0
01E0
03E0
07C0
07C0
0F80
1F00
1F00
3E00
3E00
7C00
FFF0
FFF0
7FF0
3FF0
ENDCHAR
STARTCHAR 007B
ENCODING 123
SWIDTH 280 0
DWIDTH 7 0
BBX 7 19 0 -1
BITMAP
3E
3E
38
38
38
38
38
38
F0
E0
70
38
38
38
38
38
38
3E
3E
ENDCHAR
STARTCHAR 007C
ENCODING 124
SWIDTH 120 0
DWIDTH 3 0
BBX 3 19 0 -1
BITMAP
E0
E0
E0
E0
E0
E0
E0
E0
E0
E0
E0
E0
E0
E0
E0
E0
E0
E0
E0
ENDCHAR
STARTCHAR 007D
ENCODING 125
SWIDTH 280 0
DWIDTH 7 0
BBX 7 19 0 -1
BITMAP
F8
78
18
18
18
18
18
18
0E
0E
1C
18
18
18
18
18
18
78
F8
ENDCHAR
STARTCHAR 007E
ENCODING 126
SWIDTH 440 0
DWIDTH 11 0
BBX 10 3 1 7
BITMAP
7C40
FFC0
8380
ENDCHAR
STARTCHAR 00A1
ENCODING 161
SWIDTH 160 0
DWIDTH 4 0
BBX 3 18 1 0
BITMAP
E0
E0
E0
E0
00
C0
C0
C0
C0
C0
C0
E0
E0
E0
E0
E0
E0
E0
ENDCHAR
STARTCHAR 00A2
ENCODING 162
SWIDTH 520 0
DWIDTH 13 0
BBX 12 22 1 -2
BITMAP
0E00
0E00
FFC0
FFC0
FFE0
FFF0
F1F0
F000
F000
F000
F000
F000
F000
F000
F000
F0F0
FFF0
FFE0
FFE0
FFC0
0E00
0E00
ENDCHAR
STARTCHAR 00A3
ENCODING 163
SWIDTH 480 0
DWIDTH 12 0
BBX 11 18 1 0
BITMAP
7FC0
FFE0
FFE0
FFE0
F3E0
F1E0
7000
FFE0
FFE0
FFE0
3C00
3C00
7800
7800
FFC0
FFE0
FFE0
FFE0
ENDCHAR
STARTCHAR 00A4
ENCODING 164
SWIDTH 320 0
DWIDTH 8 0
BBX 7 8 1 5
BITMAP
80
FE
FC
CC
CC
FC
FE
80
ENDCHAR
STARTCHAR 00A5
ENCODING 165
SWIDTH 440 0
DWIDTH 11 0
BBX 12 18 0 0
BITMAP
F0F0
F0F0
F1F0
79E0
79E0
7BC0
3FC0
3F80
1F80
7FE0
7FE0
7FE0
0F00
7FE0
7FE0
0F00
0F00
0F00
ENDCHAR
STARTCHAR 00A6
ENCODING 166
SWIDTH 120 0
DWIDTH 3 0
BBX 3 19 0 -1
BITMAP
E0
E0
E0
E0
E0
E0
E0
E0
00
00
E0
E0
E0
E0
E0
E0
E0
E0
E0
ENDCHAR
STARTCHAR 00A7
ENCODING 167
SWIDTH 400 0
DWIDTH 10 0
BBX 9 18 1 0
BITMAP
7E00
7F00
7F80
7380
7000
3800
FC00
FE00
E700
F380
7F80
3F80
1F80
0F00
0700
FF00
FF00
7F00
ENDCHAR
STARTCHAR 00A8
ENCODING 168
SWIDTH 280 0
DWIDTH 7 0
BBX 7 3 0 18
BITMAP
E6
E6
E6
ENDCHAR
STARTCHAR 00A9
ENCODING 169
SWIDTH 720 0
DWIDTH 18 0
BBX 18 20 0 -1
BITMAP
7FFF80
FFFFC0
FFFFC0
E001C0
E001C0
E3F1C0
E3F9C0
E339C0
E301C0
E301C0
E301C0
E301C0
E301C0
E3F9C0
E3F1C0
E3E1C0
E001C0
FFFFC0
FFFFC0
7FFF80
ENDCHAR
STARTCHAR 00AB
ENCODING 171
SWIDTH 440 0
DWIDTH 11 0
BBX 10 10 1 3
BITMAP
0840
18C0
73C0
E700
C600
C600
7380
39C0
18C0
0840
ENDCHAR
STARTCHAR 00AC
ENCODING 172
SWIDTH 560 0
DWIDTH 14 0
BBX 14 7 0 3
BITMAP
FFFC
FFFC
FFFC
001C
001C
001C
001C
ENDCHAR
STARTCHAR 00AE
ENCODING 174
SWIDTH 360 0
DWIDTH 9 0
BBX 9 10 0 8
BITMAP
7F80
FF80
C080
DE80
D680
DC80
D480
D680
C080
FF80
ENDCHAR
STARTCHAR 00AF
ENCODING 175
SWIDTH 400 0
DWIDTH 10 0
BBX 10 3 0 18
BITMAP
FFC0
FFC0
FFC0
ENDCHAR
STARTCHAR 00B0
ENCODING 176
SWIDTH 240 0
DWIDTH 6 0
BBX 5 6 1 12
BITMAP
F0
F8
98
98
F8
F0
ENDCHAR
STARTCHAR 00B1
ENCODING 177
SWIDTH 400 0
DWIDTH 10 0
BBX 10 14 0 0
BITMAP
0E00
0E00
0E00
0E00
FFC0
FFC0
FFC0
0E00
0E00
0E00
0000
FFC0
FFC0
FFC0
ENDCHAR
STARTCHAR 00B4
ENCODING 180
SWIDTH 360 0
DWIDTH 9 0
BBX 9 3 0 18
BITMAP
3F80
FE00
C000
ENDCHAR
STARTCHAR 00B6
ENCODING 182
SWIDTH 400 0
DWIDTH 10 0
BBX 9 18 1 0
BITMAP
7D80
FD80
FD80
FD80
FD80
FD80
FD80
FD80
7D80
0580
0580
0580
0580
0580
0580
0580
0580
0580
ENDCHAR
STARTCHAR 00B7
ENCODING 183
SWIDTH 160 0
DWIDTH 4 0
BBX 4 3 0 8
BITMAP
F0
F0
F0
ENDCHAR
STARTCHAR 00B8
ENCODING 184
SWIDTH 200 0
DWIDTH 5 0
BBX 4 4 0 -4
BITMAP
10
30
70
E0
ENDCHAR
STARTCHAR 00BB
ENCODING 187
SWIDTH 440 0
DWIDTH 11 0
BBX 10 10 1 3
BITMAP
8400
C600
E700
79C0
38C0
38C0
7380
E700
C600
8800
ENDCHAR
STARTCHAR 00BC
ENCODING 188
SWIDTH 560 0
DWIDTH 14 0
BBX 13 18 1 0
BITMAP
3060
7060
F0E0
F0C0
31C0
3180
3380
3300
3300
0670
0670
0CF0
0DF0
19B0
19F0
31F8
3030
7030
ENDCHAR
STARTCHAR 00BD
ENCODING 189
SWIDTH 600 0
DWIDTH 15 0
BBX 14 18 1 0
BITMAP
3060
7060
F0E0
F0C0
31C0
3180
3380
3300
3300
067C
06FC
0CCC
0C1C
1838
1870
3060
30FC
70FC
ENDCHAR
STARTCHAR 00BE
ENCODING 190
SWIDTH 600 0
DWIDTH 15 0
BBX 14 18 1 0
BITMAP
F818
FC30
0C30
0C60
7C60
7CC0
0CC0
7D80
FD80
03B8
0338
0778
0678
0ED8
0CFC
1CFC
1818
1818
ENDCHAR
STARTCHAR 00BF
ENCODING 191
SWIDTH 520 0
DWIDTH 13 0
BBX 11 18 1 0
BITMAP
1E00
1E00
1E00
1E00
0000
1E00
1E00
1E00
1E00
3C00
3C00
7800
F000
F0E0
FFE0
FFE0
FFE0
FFC0
ENDCHAR
STARTCHAR 00C0
ENCODING 192
SWIDTH 560 0
DWIDTH 14 0
BBX 14 21 0 0
BITMAP
1E00
1FF0
0010
0FC0
0FE0
1FE0
1FF0
1CF0
1C70
1C70
3C70
3C78
3878
3878
3C78
7FF8
7FFC
783C
783C
703C
F03C
ENDCHAR
STARTCHAR 00C1
ENCODING 193
SWIDTH 560 0
DWIDTH 14 0
BBX 14 21 0 0
BITMAP
0FF0
1F80
1000
0FC0
0FE0
1FE0
1FF0
1CF0
1C70
1C70
3C70
3C78
3878
3878
3C78
7FF8
7FFC
783C
783C
703C
F03C
ENDCHAR
STARTCHAR 00C2
ENCODING 194
SWIDTH 560 0
DWIDTH 14 0
BBX 14 22 0 0
BITMAP
0FC0
1FE0
3870
3030
0FC0
0FE0
1FE0
1FF0
1CF0
1C70
1C70
3C70
3C78
3878
3878
3C78
7FF8
7FFC
783C
783C
703C
F03C
ENDCHAR
STARTCHAR 00C3
ENCODING 195
SWIDTH 560 0
DWIDTH 14 0
BBX 14 22 0 0
BITMAP
0600
1FF0
39F0
2000
0FC0
0FE0
1FE0
1FF0
1CF0
1C70
1C70
3C70
3C78
3878
3878
3C78
7FF8
7FFC
783C
783C
703C
F03C
ENDCHAR
STARTCHAR 00C4
ENCODING 196
SWIDTH 560 0
DWIDTH 14 0
BBX 14 21 0 0
BITMAP
0EC0
0EC0
0EC0
0FC0
0FE0
1FE0
1FF0
1CF0
1C70
1C70
3C70
3C78
3878
3878
3C78
7FF8
7FFC
783C
783C
703C
F03C
ENDCHAR
STARTCHAR 00C5
ENCODING 197
SWIDTH 560 0
DWIDTH 14 0
BBX 14 22 0 0
BITMAP
0380
0280
0380
0380
0FC0
0FE0
1FE0
1FF0
1CF0
1C70
1C70
3C70
3C78
3878
3878
3C78
7FF8
7FFC
783C
783C
703C
F03C
ENDCHAR
STARTCHAR 00C6
ENCODING 198
SWIDTH 840 0
DWIDTH 21 0
BBX 20 18 0 0
BITMAP
0FFFC0
0FFFE0
1FFFE0
1FFFF0
1CF0F0
1CF000
1CF000
3CF000
3CFF80
38FF80
38FF80
3CF000
7FF000
7FF070
78FFF0
78FFF0
70FFE0
F0FFC0
ENDCHAR
STARTCHAR 00C7
ENCODING 199
SWIDTH 520 0
DWIDTH 13 0
BBX 12 22 1 -4
BITMAP
FFC0
FFC0
FFE0
FFF0
F1F0
F000
F000
F000
F000
F000
F000
F000
F000
F0F0
FFF0
FFE0
FFE0
FFC0
0600
0E00
0E00
1C00
ENDCHAR
STARTCHAR 00C8
ENCODING 200
SWIDTH 520 0
DWIDTH 13 0
BBX 12 21 1 0
BITMAP
7C00
7FC0
0040
FFC0
FFC0
FFE0
FFF0
F0F0
F000
F000
F000
FF80
FF80
FF80
F000
F000
F0F0
FFF0
FFE0
FFE0
FFC0
ENDCHAR
STARTCHAR 00C9
ENCODING 201
SWIDTH 520 0
DWIDTH 13 0
BBX 12 21 1 0
BITMAP
3FC0
7F00
6000
FFC0
FFC0
FFE0
FFF0
F0F0
F000
F000
F000
FF80
FF80
FF80
F000
F000
F0F0
FFF0
FFE0
FFE0
FFC0
ENDCHAR
STARTCHAR 00CA
ENCODING 202
SWIDTH 520 0
DWIDTH 13 0
BBX 12 22 1 0
BITMAP
3F00
7F80
E1C0
C0C0
FFC0
FFC0
FFE0
FFF0
F0F0
F000
F000
F000
FF80
FF80
FF80
F000
F000
F0F0
FFF0
FFE0
FFE0
FFC0
ENDCHAR
STARTCHAR 00CB
ENCODING 203
SWIDTH 520 0
DWIDTH 13 0
BBX 12 21 1 0
BITMAP
3B80
3B80
3B80
FFC0
FFC0
FFE0
FFF0
F0F0
F000
F000
F000
FF80
FF80
FF80
F000
F000
F0F0
FFF0
FFE0
FFE0
FFC0
ENDCHAR
STARTCHAR 00CC
ENCODING 204
SWIDTH 200 0
DWIDTH 5 0
BBX 9 21 -1 0
BITMAP
F000
FF80
0080
3C00
3C00
3C00
3C00
3C00
3C00
3C00
3C00
3C00
3C00
3C00
3C00
3C00
3C00
3C00
3C00
3C00
3C00
ENDCHAR
STARTCHAR 00CD
ENCODING 205
SWIDTH 200 0
DWIDTH 5 0
BBX 9 21 -2 0
BITMAP
3F80
FE00
C000
1E00
1E00
1E00
1E00
1E00
1E00
1E00
1E00
1E00
1E00
1E00
1E00
1E00
1E00
1E00
1E00
1E00
1E00
ENDCHAR
STARTCHAR 00CE
ENCODING 206
SWIDTH 480 0
DWIDTH 12 0
BBX 10 22 1 0
BITMAP
3F00
7F80
E1C0
C0C0
1E00
1E00
1E00
1E00
1E00
1E00
1E00
1E00
1E00
1E00
1E00
1E00
1E00
1E00
1E00
1E00
1E00
1E00
ENDCHAR
STARTCHAR 00CF
ENCODING 207
SWIDTH 200 0
DWIDTH 5 0
BBX 6 21 0 0
BITMAP
CC
CC
CC
78
78
78
78
78
78
78
78
78
78
78
78
78
78
78
78
78
78
ENDCHAR
STARTCHAR 00D0
ENCODING 208
SWIDTH 560 0
DWIDTH 14 0
BBX 15 18 -1 0
BITMAP
3FF8
3FF8
3FFC
3FFE
3C3E
3C1E
3C1E
3C1E
FF1E
FF1E
FF1E
3C1E
3C1E
3C3E
3FFE
3FFC
3FFC
3FF8
ENDCHAR
STARTCHAR 00D1
ENCODING 209
SWIDTH 560 0
DWIDTH 14 0
BBX 12 22 1 0
BITMAP
0C00
3FE0
73E0
4000
30F0
70F0
78F0
F8F0
FCF0
FCF0
FEF0
FEF0
FEF0
F7F0
F7F0
F7F0
F3F0
F3F0
F1F0
F1F0
F0E0
F0E0
ENDCHAR
STARTCHAR 00D2
ENCODING 210
SWIDTH 600 0
DWIDTH 15 0
BBX 14 21 1 0
BITMAP
1E00
1FF0
0010
3FF0
7FF0
7FF8
FFFC
F07C
F03C
F03C
F03C
F03C
F03C
F03C
F03C
F03C
F07C
FFFC
FFF8
7FF8
3FF0
ENDCHAR
STARTCHAR 00D3
ENCODING 211
SWIDTH 600 0
DWIDTH 15 0
BBX 14 21 1 0
BITMAP
0FF0
1F80
1000
3FF0
7FF0
7FF8
FFFC
F07C
F03C
F03C
F03C
F03C
F03C
F03C
F03C
F03C
F07C
FFFC
FFF8
7FF8
3FF0
ENDCHAR
STARTCHAR 00D4
ENCODING 212
SWIDTH 600 0
DWIDTH 15 0
BBX 14 22 1 0
BITMAP
0FC0
1FE0
3870
3030
3FF0
7FF0
7FF8
FFFC
F07C
F03C
F03C
F03C
F03C
F03C
F03C
F03C
F03C
F07C
FFFC
FFF8
7FF8
3FF0
ENDCHAR
STARTCHAR 00D5
ENCODING 213
SWIDTH 600 0
DWIDTH 15 0
BBX 14 22 1 0
BITMAP
0C00
3FB0
31F0
2040
3FF0
7FF0
7FF8
FFFC
F07C
F03C
F03C
F03C
F03C
F03C
F03C
F03C
F03C
F07C
FFFC
FFF8
7FF8
3FF0
ENDCHAR
STARTCHAR 00D6
ENCODING 214
SWIDTH 600 0
DWIDTH 15 0
BBX 14 21 1 0
BITMAP
1CC0
1CC0
1CC0
3FF0
7FF0
7FF8
FFFC
F07C
F03C
F03C
F03C
F03C
F03C
F03C
F03C
F03C
F07C
FFFC
FFF8
7FF8
3FF0
ENDCHAR
STARTCHAR 00D7
ENCODING 215
SWIDTH 400 0
DWIDTH 10 0
BBX 9 7 1 5
BITMAP
C300
F780
7E00
3C00
7E00
FF00
E300
ENDCHAR
STARTCHAR 00D8
ENCODING 216
SWIDTH 600 0
DWIDTH 15 0
BBX 14 22 1 -2
BITMAP
0038
0038
3FF0
7FF0
7FF8
FFFC
F0FC
F1FC
F1BC
F3BC
F33C
F73C
F73C
FE3C
FE3C
FC7C
FFFC
FFF8
7FF8
7FF0
7000
6000
ENDCHAR
STARTCHAR 00D9
ENCODING 217
SWIDTH 600 0
DWIDTH 15 0
BBX 13 21 1 0
BITMAP
3E00
3FE0
0000
F078
F078
F078
F078
F078
F078
F078
F078
F078
F078
F078
F078
F078
F078
FFF8
FFF8
7FF0
3FF0
ENDCHAR
STARTCHAR 00DA
ENCODING 218
SWIDTH 600 0
DWIDTH 15 0
BBX 13 21 1 0
BITMAP
0FE0
3F80
3000
F078
F078
F078
F078
F078
F078
F078
F078
F078
F078
F078
F078
F078
F078
FFF8
FFF8
7FF0
3FF0
ENDCHAR
STARTCHAR 00DB
ENCODING 219
SWIDTH 600 0
DWIDTH 15 0
BBX 13 22 1 0
BITMAP
1FC0
3FE0
3870
2030
F078
F078
F078
F078
F078
F078
F078
F078
F078
F078
F078
F078
F078
F078
FFF8
FFF8
7FF0
3FF0
ENDCHAR
STARTCHAR 00DC
ENCODING 220
SWIDTH 600 0
DWIDTH 15 0
BBX 13 21 1 0
BITMAP
0CC0
0CC0
0CC0
F078
F078
F078
F078
F078
F078
F078
F078
F078
F078
F078
F078
F078
F078
FFF8
FFF8
7FF0
3FF0
ENDCHAR
STARTCHAR 00DD
ENCODING 221
SWIDTH 440 0
DWIDTH 11 0
BBX 12 21 0 0
BITMAP
1FC0
7F00
6000
F0F0
F0F0
F1F0
79E0
79E0
7BC0
3FC0
3F80
1F80
1F80
0F00
0F00
0F00
0F00
0F00
0F00
0F00
0F00
ENDCHAR
STARTCHAR 00DE
ENCODING 222
SWIDTH 520 0
DWIDTH 13 0
BBX 12 20 1 0
BITMAP
F000
F000
FFC0
FFC0
FFE0
FFF0
F1F0
F0F0
F0F0
F0F0
FFF0
FFF0
FFE0
FFC0
F000
F000
F000
F000
F000
F000
ENDCHAR
STARTCHAR 00DF
ENCODING 223
SWIDTH 560 0
DWIDTH 14 0
BBX 13 18 1 0
BITMAP
3FE0
7FE0
7FF0
FFF8
F0F8
F078
F078
F3F8
F7F0
F7F0
F7F8
F078
F078
F078
F0F8
F7F0
F7F0
F7E0
ENDCHAR
STARTCHAR 00E0
ENCODING 224
SWIDTH 560 0
DWIDTH 14 0
BBX 14 21 0 0
BITMAP
1E00
1FF0
0010
0FC0
0FE0
1FE0
1FF0
1CF0
1C70
1C70
3C70
3C78
3878
3878
3C78
7FF8
7FFC
783C
783C
703C
F03C
ENDCHAR
STARTCHAR 00E1
ENCODING 225
SWIDTH 560 0
DWIDTH 14 0
BBX 14 21 0 0
BITMAP
0FF0
1F80
1000
0FC0
0FE0
1FE0
1FF0
1CF0
1C70
1C70
3C70
3C78
3878
3878
3C78
7FF8
7FFC
783C
783C
703C
F03C
ENDCHAR
STARTCHAR 00E2
ENCODING 226
SWIDTH 560 0
DWIDTH 14 0
BBX 14 22 0 0
BITMAP
0FC0
1FE0
3870
3030
0FC0
0FE0
1FE0
1FF0
1CF0
1C70
1C70
3C70
3C78
3878
3878
3C78
7FF8
7FFC
783C
783C
703C
F03C
ENDCHAR
STARTCHAR 00E3
ENCODING 227
SWIDTH 560 0
DWIDTH 14 0
BBX 14 22 0 0
BITMAP
0600
1FF0
39F0
2000
0FC0
0FE0
1FE0
1FF0
1CF0
1C70
1C70
3C70
3C78
3878
3878
3C78
7FF8
7FFC
783C
783C
703C
F03C
ENDCHAR
STARTCHAR 00E4
ENCODING 228
SWIDTH 560 0
DWIDTH 14 0
BBX 14 21 0 0
BITMAP
0EC0
0EC0
0EC0
0FC0
0FE0
1FE0
1FF0
1CF0
1C70
1C70
3C70
3C78
3878
3878
3C78
7FF8
7FFC
783C
783C
703C
F03C
ENDCHAR
STARTCHAR 00E5
ENCODING 229
SWIDTH 560 0
DWIDTH 14 0
BBX 14 22 0 0
BITMAP
0380
0280
0380
0380
0FC0
0FE0
1FE0
1FF0
1CF0
1C70
1C70
3C70
3C78
3878
3878
3C78
7FF8
7FFC
783C
783C
703C
F03C
ENDCHAR
STARTCHAR 00E6
ENCODING 230
SWIDTH 840 0
DWIDTH 21 0
BBX 20 18 0 0
BITMAP
0FFFC0
0FFFE0
1FFFE0
1FFFF0
1CF0F0
1CF000
1CF000
3CF000
3CFF80
38FF80
38FF80
3CF000
7FF000
7FF070
78FFF0
78FFF0
70FFE0
F0FFC0
ENDCHAR
STARTCHAR 00E7
ENCODING 231
SWIDTH 520 0
DWIDTH 13 0
BBX 12 22 1 -4
BITMAP
FFC0
FFC0
FFE0
FFF0
F1F0
F000
F000
F000
F000
F000
F000
F000
F000
F0F0
FFF0
FFE0
FFE0
FFC0
0600
0E00
0E00
1C00
ENDCHAR
STARTCHAR 00E8
ENCODING 232
SWIDTH 520 0
DWIDTH 13 0
BBX 12 21 1 0
BITMAP
7C00
7FC0
0040
FFC0
FFC0
FFE0
FFF0
F0F0
F000
F000
F000
FF80
FF80
FF80
F000
F000
F0F0
FFF0
FFE0
FFE0
FFC0
ENDCHAR
STARTCHAR 00E9
ENCODING 233
SWIDTH 520 0
DWIDTH 13 0
BBX 12 21 1 0
BITMAP
3FC0
7F00
6000
FFC0
FFC0
FFE0
FFF0
F0F0
F000
F000
F000
FF80
FF80
FF80
F000
F000
F0F0
FFF0
FFE0
FFE0
FFC0
ENDCHAR
STARTCHAR 00EA
ENCODING 234
SWIDTH 520 0
DWIDTH 13 0
BBX 12 22 1 0
BITMAP
3F00
7F80
E1C0
C0C0
FFC0
FFC0
FFE0
FFF0
F0F0
F000
F000
F000
FF80
FF80
FF80
F000
F000
F0F0
FFF0
FFE0
FFE0
FFC0
ENDCHAR
STARTCHAR 00EB
ENCODING 235
SWIDTH 520 0
DWIDTH 13 0
BBX 12 21 1 0
BITMAP
3300
3300
3300
FFC0
FFC0
FFE0
FFF0
F0F0
F000
F000
F000
FF80
FF80
FF80
F000
F000
F0F0
FFF0
FFE0
FFE0
FFC0
ENDCHAR
STARTCHAR 00EC
ENCODING 236
SWIDTH 200 0
DWIDTH 5 0
BBX 9 21 -2 0
BITMAP
F800
FF80
0000
1E00
1E00
1E00
1E00
1E00
1E00
1E00
1E00
1E00
1E00
1E00
1E00
1E00
1E00
1E00
1E00
1E00
1E00
ENDCHAR
STARTCHAR 00ED
ENCODING 237
SWIDTH 200 0
DWIDTH 5 0
BBX 9 21 -2 0
BITMAP
3F80
FE00
C000
1E00
1E00
1E00
1E00
1E00
1E00
1E00
1E00
1E00
1E00
1E00
1E00
1E00
1E00
1E00
1E00
1E00
1E00
ENDCHAR
STARTCHAR 00EE
ENCODING 238
SWIDTH 480 0
DWIDTH 12 0
BBX 10 22 1 0
BITMAP
3F00
7F80
E1C0
C0C0
0000
1E00
1E00
1E00
1E00
1E00
1E00
1E00
1E00
1E00
1E00
1E00
1E00
1E00
1E00
1E00
1E00
1E00
ENDCHAR
STARTCHAR 00EF
ENCODING 239
SWIDTH 200 0
DWIDTH 5 0
BBX 6 21 0 0
BITMAP
CC
CC
CC
78
78
78
78
78
78
78
78
78
78
78
78
78
78
78
78
78
78
ENDCHAR
STARTCHAR 00F0
ENCODING 240
SWIDTH 560 0
DWIDTH 14 0
BBX 15 18 -1 0
BITMAP
3FF8
3FF8
3FFC
3FFE
3C3E
3C1E
3C1E
3C1E
FF1E
FF1E
FF1E
3C1E
3C1E
3C3E
3FFE
3FFC
3FFC
3FF8
ENDCHAR
STARTCHAR 00F1
ENCODING 241
SWIDTH 560 0
DWIDTH 14 0
BBX 12 22 1 0
BITMAP
0C00
3FE0
73E0
4000
30F0
70F0
78F0
F8F0
FCF0
FCF0
FEF0
FEF0
FEF0
F7F0
F7F0
F7F0
F3F0
F3F0
F1F0
F1F0
F0E0
F0E0
ENDCHAR
STARTCHAR 00F2
ENCODING 242
SWIDTH 600 0
DWIDTH 15 0
BBX 14 21 1 0
BITMAP
3C00
3FE0
0020
3FF0
7FF0
7FF8
FFFC
F07C
F03C
F03C
F03C
F03C
F03C
F03C
F03C
F03C
F07C
FFFC
FFF8
7FF8
3FF0
ENDCHAR
STARTCHAR 00F3
ENCODING 243
SWIDTH 600 0
DWIDTH 15 0
BBX 14 21 1 0
BITMAP
1FE0
3F80
3000
3FF0
7FF0
7FF8
FFFC
F07C
F03C
F03C
F03C
F03C
F03C
F03C
F03C
F03C
F07C
FFFC
FFF8
7FF8
3FF0
ENDCHAR
STARTCHAR 00F4
ENCODING 244
SWIDTH 600 0
DWIDTH 15 0
BBX 14 22 1 0
BITMAP
0FC0
1FE0
3870
3030
3FF0
7FF0
7FF8
FFFC
F07C
F03C
F03C
F03C
F03C
F03C
F03C
F03C
F03C
F07C
FFFC
FFF8
7FF8
3FF0
ENDCHAR
STARTCHAR 00F5
ENCODING 245
SWIDTH 600 0
DWIDTH 15 0
BBX 14 22 1 0
BITMAP
0C00
3FB0
31F0
2040
3FF0
7FF0
7FF8
FFFC
F07C
F03C
F03C
F03C
F03C
F03C
F03C
F03C
F03C
F07C
FFFC
FFF8
7FF8
3FF0
ENDCHAR
STARTCHAR 00F6
ENCODING 246
SWIDTH 600 0
DWIDTH 15 0
BBX 14 21 1 0
BITMAP
1CC0
1CC0
1CC0
3FF0
7FF0
7FF8
FFFC
F07C
F03C
F03C
F03C
F03C
F03C
F03C
F03C
F03C
F07C
FFFC
FFF8
7FF8
3FF0
ENDCHAR
STARTCHAR 00F7
ENCODING 247
SWIDTH 400 0
DWIDTH 10 0
BBX 10 10 0 4
BITMAP
0E00
0E00
0E00
0000
FFC0
FFC0
0000
0E00
0E00
0E00
ENDCHAR
STARTCHAR 00F8
ENCODING 248
SWIDTH 600 0
DWIDTH 15 0
BBX 14 22 1 -2
BITMAP
0038
0038
3FF0
7FF0
7FF8
FFFC
F0FC
F1FC
F1BC
F3BC
F33C
F73C
F73C
FE3C
FE3C
FC7C
FFFC
FFF8
7FF8
7FF0
7000
6000
ENDCHAR
STARTCHAR 00F9
ENCODING 249
SWIDTH 600 0
DWIDTH 15 0
BBX 13 21 1 0
BITMAP
3E00
3FE0
0000
F078
F078
F078
F078
F078
F078
F078
F078
F078
F078
F078
F078
F078
F078
FFF8
FFF8
7FF0
3FF0
ENDCHAR
STARTCHAR 00FA
ENCODING 250
SWIDTH 600 0
DWIDTH 15 0
BBX 13 21 1 0
BITMAP
0FE0
3F80
3000
F078
F078
F078
F078
F078
F078
F078
F078
F078
F078
F078
F078
F078
F078
FFF8
FFF8
7FF0
3FF0
ENDCHAR
STARTCHAR 00FB
ENCODING 251
SWIDTH 600 0
DWIDTH 15 0
BBX 13 22 1 0
BITMAP
1FC0
3FE0
3870
2030
F078
F078
F078
F078
F078
F078
F078
F078
F078
F078
F078
F078
F078
F078
FFF8
FFF8
7FF0
3FF0
ENDCHAR
STARTCHAR 00FC
ENCODING 252
SWIDTH 600 0
DWIDTH 15 0
BBX 13 21 1 0
BITMAP
1CC0
1CC0
1CC0
F078
F078
F078
F078
F078
F078
F078
F078
F078
F078
F078
F078
F078
F078
FFF8
FFF8
7FF0
3FF0
ENDCHAR
STARTCHAR 00FD
ENCODING 253
SWIDTH 440 0
DWIDTH 11 0
BBX 12 21 0 0
BITMAP
1FC0
7F00
6000
F0F0
F0F0
F1F0
79E0
79E0
7BC0
3FC0
3F80
1F80
1F80
0F00
0F00
0F00
0F00
0F00
0F00
0F00
0F00
ENDCHAR
STARTCHAR 00FE
ENCODING 254
SWIDTH 520 0
DWIDTH 13 0
BBX 12 20 1 0
BITMAP
F000
F000
FFC0
FFC0
FFE0
FFF0
F1F0
F0F0
F0F0
F0F0
FFF0
FFF0
FFE0
FFC0
F000
F000
F000
F000
F000
F000
ENDCHAR
STARTCHAR 00FF
ENCODING 255
SWIDTH 440 0
DWIDTH 11 0
BBX 12 21 0 0
BITMAP
1980
1980
1980
F0F0
F0F0
F1F0
79E0
79E0
7BC0
3FC0
3F80
1F80
1F80
0F00
0F00
0F00
0F00
0F00
0F00
0F00
0F00
ENDCHAR
STARTCHAR 0100
ENCODING 256
SWIDTH 560 0
DWIDTH 14 0
BBX 14 21 0 0
BITMAP
3FF0
3FF0
3FF0
0FC0
0FE0
1FE0
1FF0
1CF0
1C70
1C70
3C70
3C78
3878
3878
3C78
7FF8
7FFC
783C
783C
703C
F03C
ENDCHAR
STARTCHAR 0101
ENCODING 257
SWIDTH 560 0
DWIDTH 14 0
BBX 14 21 0 0
BITMAP
3FF0
3FF0
3FF0
0FC0
0FE0
1FE0
1FF0
1CF0
1C70
1C70
3C70
3C78
3878
3878
3C78
7FF8
7FFC
783C
783C
703C
F03C
ENDCHAR
STARTCHAR 0102
ENCODING 258
SWIDTH 560 0
DWIDTH 14 0
BBX 14 22 0 0
BITMAP
3030
3870
1FE0
0FC0
0FC0
0FE0
1FE0
1FF0
1CF0
1C70
1C70
3C70
3C78
3878
3878
3C78
7FF8
7FFC
783C
783C
703C
F03C
ENDCHAR
STARTCHAR 0103
ENCODING 259
SWIDTH 560 0
DWIDTH 14 0
BBX 14 22 0 0
BITMAP
3030
3870
1FE0
0FC0
0FC0
0FE0
1FE0
1FF0
1CF0
1C70
1C70
3C70
3C78
3878
3878
3C78
7FF8
7FFC
783C
783C
703C
F03C
ENDCHAR
STARTCHAR 0104
ENCODING 260
SWIDTH 560 0
DWIDTH 14 0
BBX 16 22 0 -4
BITMAP
0FC0
0FE0
1FE0
1FF0
1CF0
1C70
1C70
3C70
3C78
3878
3878
3C78
7FF8
7FFC
783C
783C
703C
F03C
000C
0008
000F
000E
ENDCHAR
STARTCHAR 0105
ENCODING 261
SWIDTH 560 0
DWIDTH 14 0
BBX 16 22 0 -4
BITMAP
0FC0
0FE0
1FE0
1FF0
1CF0
1C70
1C70
3C70
3C78
3878
3878
3C78
7FF8
7FFC
783C
783C
703C
F03C
000C
0008
000F
000E
ENDCHAR
STARTCHAR 0106
ENCODING 262
SWIDTH 520 0
DWIDTH 13 0
BBX 12 21 1 0
BITMAP
1FC0
7F00
6000
FFC0
FFC0
FFE0
FFF0
F1F0
F000
F000
F000
F000
F000
F000
F000
F000
F0F0
FFF0
FFE0
FFE0
FFC0
ENDCHAR
STARTCHAR 0107
ENCODING 263
SWIDTH 520 0
DWIDTH 13 0
BBX 12 21 1 0
BITMAP
1FC0
7F00
6000
FFC0
FFC0
FFE0
FFF0
F1F0
F000
F000
F000
F000
F000
F000
F000
F000
F0F0
FFF0
FFE0
FFE0
FFC0
ENDCHAR
STARTCHAR 0108
ENCODING 264
SWIDTH 520 0
DWIDTH 13 0
BBX 12 22 1 0
BITMAP
3F00
7F80
E1C0
C0C0
FFC0
FFC0
FFE0
FFF0
F1F0
F000
F000
F000
F000
F000
F000
F000
F000
F0F0
FFF0
FFE0
FFE0
FFC0
ENDCHAR
STARTCHAR 0109
ENCODING 265
SWIDTH 520 0
DWIDTH 13 0
BBX 12 22 1 0
BITMAP
3F00
7F80
E1C0
C0C0
FFC0
FFC0
FFE0
FFF0
F1F0
F000
F000
F000
F000
F000
F000
F000
F000
F0F0
FFF0
FFE0
FFE0
FFC0
ENDCHAR
STARTCHAR 010A
ENCODING 266
SWIDTH 520 0
DWIDTH 13 0
BBX 12 21 1 0
BITMAP
0E00
0E00
0600
FFC0
FFC0
FFE0
FFF0
F1F0
F000
F000
F000
F000
F000
F000
F000
F000
F0F0
FFF0
FFE0
FFE0
FFC0
ENDCHAR
STARTCHAR 010B
ENCODING 267
SWIDTH 520 0
DWIDTH 13 0
BBX 12 21 1 0
BITMAP
0E00
0E00
0600
FFC0
FFC0
FFE0
FFF0
F1F0
F000
F000
F000
F000
F000
F000
F000
F000
F0F0
FFF0
FFE0
FFE0
FFC0
ENDCHAR
STARTCHAR 010C
ENCODING 268
SWIDTH 520 0
DWIDTH 13 0
BBX 12 22 1 0
BITMAP
2080
3380
1F00
0E00
FFC0
FFC0
FFE0
FFF0
F1F0
F000
F000
F000
F000
F000
F000
F000
F000
F0F0
FFF0
FFE0
FFE0
FFC0
ENDCHAR
STARTCHAR 010D
ENCODING 269
SWIDTH 520 0
DWIDTH 13 0
BBX 12 22 1 0
BITMAP
2080
3380
1F00
0E00
FFC0
FFC0
FFE0
FFF0
F1F0
F000
F000
F000
F000
F000
F000
F000
F000
F0F0
FFF0
FFE0
FFE0
FFC0
ENDCHAR
STARTCHAR 010E
ENCODING 270
SWIDTH 560 0
DWIDTH 14 0
BBX 13 22 1 0
BITMAP
10C0
19C0
0F80
0700
FFE0
FFE0
FFF0
FFF8
F0F8
F078
F078
F078
F078
F078
F078
F078
F078
F0F8
FFF8
FFF0
FFF0
FFE0
ENDCHAR
STARTCHAR 010F
ENCODING 271
SWIDTH 760 0
DWIDTH 19 0
BBX 18 18 1 0
BITMAP
FFE180
FFE1C0
FFF1C0
FFF9C0
F0FB80
F07B00
F07800
F07800
F07800
F07800
F07800
F07800
F07800
F0F800
FFF800
FFF000
FFF000
FFE000
ENDCHAR
STARTCHAR 0110
ENCODING 272
SWIDTH 560 0
DWIDTH 14 0
BBX 15 18 -1 0
BITMAP
3FF8
3FF8
3FFC
3FFE
3C3E
3C1E
3C1E
3C1E
FF1E
FF1E
FF1E
3C1E
3C1E
3C3E
3FFE
3FFC
3FFC
3FF8
ENDCHAR
STARTCHAR 0111
ENCODING 273
SWIDTH 560 0
DWIDTH 14 0
BBX 15 18 -1 0
BITMAP
3FF8
3FF8
3FFC
3FFE
3C3E
3C1E
3C1E
3C1E
FF1E
FF1E
FF1E
3C1E
3C1E
3C3E
3FFE
3FFC
3FFC
3FF8
ENDCHAR
STARTCHAR 0112
ENCODING 274
SWIDTH 520 0
DWIDTH 13 0
BBX 12 21 1 0
BITMAP
FFC0
FFC0
FFC0
FFC0
FFC0
FFE0
FFF0
F0F0
F000
F000
F000
FF80
FF80
FF80
F000
F000
F0F0
FFF0
FFE0
FFE0
FFC0
ENDCHAR
STARTCHAR 0113
ENCODING 275
SWIDTH 520 0
DWIDTH 13 0
BBX 12 21 1 0
BITMAP
FFC0
FFC0
FFC0
FFC0
FFC0
FFE0
FFF0
F0F0
F000
F000
F000
FF80
FF80
FF80
F000
F000
F0F0
FFF0
FFE0
FFE0
FFC0
ENDCHAR
STARTCHAR 0116
ENCODING 278
SWIDTH 520 0
DWIDTH 13 0
BBX 12 21 1 0
BITMAP
0E00
0E00
0C00
FFC0
FFC0
FFE0
FFF0
F0F0
F000
F000
F000
FF80
FF80
FF80
F000
F000
F0F0
FFF0
FFE0
FFE0
FFC0
ENDCHAR
STARTCHAR 0117
ENCODING 279
SWIDTH 520 0
DWIDTH 13 0
BBX 12 21 1 0
BITMAP
0E00
0E00
0C00
FFC0
FFC0
FFE0
FFF0
F0F0
F000
F000
F000
FF80
FF80
FF80
F000
F000
F0F0
FFF0
FFE0
FFE0
FFC0
ENDCHAR
STARTCHAR 0118
ENCODING 280
SWIDTH 520 0
DWIDTH 13 0
BBX 12 22 1 -4
BITMAP
FFC0
FFC0
FFE0
FFF0
F0F0
F000
F000
F000
FF80
FF80
FF80
F000
F000
F0F0
FFF0
FFE0
FFE0
FFC0
0C00
0800
1F00
1E00
ENDCHAR
STARTCHAR 0119
ENCODING 281
SWIDTH 520 0
DWIDTH 13 0
BBX 12 22 1 -4
BITMAP
FFC0
FFC0
FFE0
FFF0
F0F0
F000
F000
F000
FF80
FF80
FF80
F000
F000
F0F0
FFF0
FFE0
FFE0
FFC0
0C00
0800
1F00
1E00
ENDCHAR
STARTCHAR 011C
ENCODING 284
SWIDTH 520 0
DWIDTH 13 0
BBX 12 22 1 0
BITMAP
1F80
3FC0
70E0
6060
FFC0
FFE0
FFE0
FFF0
F0F0
F000
F000
F000
F3F0
F3F0
F3F0
F3F0
F0F0
F0F0
FFF0
FFF0
FFF0
FFB0
ENDCHAR
STARTCHAR 011D
ENCODING 285
SWIDTH 520 0
DWIDTH 13 0
BBX 12 22 1 0
BITMAP
1F80
3FC0
70E0
6060
FFC0
FFE0
FFE0
FFF0
F0F0
F000
F000
F000
F3F0
F3F0
F3F0
F3F0
F0F0
F0F0
FFF0
FFF0
FFF0
FFB0
ENDCHAR
STARTCHAR 011E
ENCODING 286
SWIDTH 520 0
DWIDTH 13 0
BBX 12 22 1 0
BITMAP
6060
70E0
7FC0
1F80
FFC0
FFE0
FFE0
FFF0
F0F0
F000
F000
F000
F3F0
F3F0
F3F0
F3F0
F0F0
F0F0
FFF0
FFF0
FFF0
FFB0
ENDCHAR
STARTCHAR 011F
ENCODING 287
SWIDTH 520 0
DWIDTH 13 0
BBX 12 22 1 0
BITMAP
6060
70E0
7FC0
1F80
FFC0
FFE0
FFE0
FFF0
F0F0
F000
F000
F000
F3F0
F3F0
F3F0
F3F0
F0F0
F0F0
FFF0
FFF0
FFF0
FFB0
ENDCHAR
STARTCHAR 0120
ENCODING 288
SWIDTH 520 0
DWIDTH 13 0
BBX 12 21 1 0
BITMAP
0E00
0E00
0600
FFC0
FFE0
FFE0
FFF0
F0F0
F000
F000
F000
F3F0
F3F0
F3F0
F3F0
F0F0
F0F0
FFF0
FFF0
FFF0
FFB0
ENDCHAR
STARTCHAR 0121
ENCODING 289
SWIDTH 520 0
DWIDTH 13 0
BBX 12 21 1 0
BITMAP
0E00
0E00
0600
FFC0
FFE0
FFE0
FFF0
F0F0
F000
F000
F000
F3F0
F3F0
F3F0
F3F0
F0F0
F0F0
FFF0
FFF0
FFF0
FFB0
ENDCHAR
STARTCHAR 0122
ENCODING 290
SWIDTH 520 0
DWIDTH 13 0
BBX 12 22 1 -4
BITMAP
FFC0
FFE0
FFE0
FFF0
F0F0
F000
F000
F000
F3F0
F3F0
F3F0
F3F0
F0F0
F0F0
FFF0
FFF0
FFF0
FFB0
0000
0600
0600
0C00
ENDCHAR
STARTCHAR 0123
ENCODING 291
SWIDTH 520 0
DWIDTH 13 0
BBX 12 22 1 -4
BITMAP
FFC0
FFE0
FFE0
FFF0
F0F0
F000
F000
F000
F3F0
F3F0
F3F0
F3F0
F0F0
F0F0
FFF0
FFF0
FFF0
FFB0
0000
0600
0600
0C00
ENDCHAR
STARTCHAR 0124
ENCODING 292
SWIDTH 560 0
DWIDTH 14 0
BBX 13 22 1 0
BITMAP
1F80
3FE0
70E0
6060
F078
F078
F078
F078
F078
F078
F0F8
FFF8
FFF8
FFF8
FFF8
F0F8
F078
F078
F078
F078
F078
F078
ENDCHAR
STARTCHAR 0125
ENCODING 293
SWIDTH 560 0
DWIDTH 14 0
BBX 13 22 1 0
BITMAP
1F80
3FE0
70E0
6060
F078
F078
F078
F078
F078
F078
F0F8
FFF8
FFF8
FFF8
FFF8
F0F8
F078
F078
F078
F078
F078
F078
ENDCHAR
STARTCHAR 0126
ENCODING 294
SWIDTH 560 0
DWIDTH 14 0
BBX 17 18 -1 0
BITMAP
3C1E00
3C1E00
FFFF80
FFFF80
FFFF80
3C1E00
3C3E00
3FFE00
3FFE00
3FFE00
3FFE00
3C3E00
3C1E00
3C1E00
3C1E00
3C1E00
3C1E00
3C1E00
ENDCHAR
STARTCHAR 0127
ENCODING 295
SWIDTH 560 0
DWIDTH 14 0
BBX 17 18 -1 0
BITMAP
3C1E00
3C1E00
FFFF80
FFFF80
FFFF80
3C1E00
3C3E00
3FFE00
3FFE00
3FFE00
3FFE00
3C3E00
3C1E00
3C1E00
3C1E00
3C1E00
3C1E00
3C1E00
ENDCHAR
STARTCHAR 0128
ENCODING 296
SWIDTH 200 0
DWIDTH 5 0
BBX 10 22 -2 0
BITMAP
3000
FEC0
C7C0
8000
1E00
1E00
1E00
1E00
1E00
1E00
1E00
1E00
1E00
1E00
1E00
1E00
1E00
1E00
1E00
1E00
1E00
1E00
ENDCHAR
STARTCHAR 0129
ENCODING 297
SWIDTH 200 0
DWIDTH 5 0
BBX 10 22 -2 0
BITMAP
3000
FEC0
C7C0
8000
1E00
1E00
1E00
1E00
1E00
1E00
1E00
1E00
1E00
1E00
1E00
1E00
1E00
1E00
1E00
1E00
1E00
1E00
ENDCHAR
STARTCHAR 012A
ENCODING 298
SWIDTH 200 0
DWIDTH 5 0
BBX 10 21 -2 0
BITMAP
FFC0
FFC0
FFC0
1E00
1E00
1E00
1E00
1E00
1E00
1E00
1E00
1E00
1E00
1E00
1E00
1E00
1E00
1E00
1E00
1E00
1E00
ENDCHAR
STARTCHAR 012B
ENCODING 299
SWIDTH 200 0
DWIDTH 5 0
BBX 10 21 -2 0
BITMAP
FFC0
FFC0
FFC0
1E00
1E00
1E00
1E00
1E00
1E00
1E00
1E00
1E00
1E00
1E00
1E00
1E00
1E00
1E00
1E00
1E00
1E00
ENDCHAR
STARTCHAR 012E
ENCODING 302
SWIDTH 200 0
DWIDTH 5 0
BBX 4 22 1 -4
BITMAP
F0
F0
F0
F0
F0
F0
F0
F0
F0
F0
F0
F0
F0
F0
F0
F0
F0
F0
40
C0
F0
F0
ENDCHAR
STARTCHAR 012F
ENCODING 303
SWIDTH 200 0
DWIDTH 5 0
BBX 4 22 1 -4
BITMAP
F0
F0
F0
F0
F0
F0
F0
F0
F0
F0
F0
F0
F0
F0
F0
F0
F0
F0
40
C0
F0
F0
ENDCHAR
STARTCHAR 0134
ENCODING 308
SWIDTH 480 0
DWIDTH 12 0
BBX 11 22 1 0
BITMAP
0F80
1FC0
38E0
3060
3FE0
3FE0
3FE0
3FE0
01E0
01E0
01E0
01E0
01E0
01E0
01E0
01E0
01E0
F1E0
FFE0
FFE0
7FE0
3FE0
ENDCHAR
STARTCHAR 0135
ENCODING 309
SWIDTH 480 0
DWIDTH 12 0
BBX 11 22 1 0
BITMAP
0F80
1FC0
38E0
3060
3FE0
3FE0
3FE0
3FE0
01E0
01E0
01E0
01E0
01E0
01E0
01E0
01E0
01E0
F1E0
FFE0
FFE0
7FE0
3FE0
ENDCHAR
STARTCHAR 0136
ENCODING 310
SWIDTH 560 0
DWIDTH 14 0
BBX 12 22 1 -4
BITMAP
F0F0
F0F0
F1F0
F3F0
F3E0
F7C0
FF80
FF80
FF00
FF00
FF00
FF80
F7C0
F3C0
F3E0
F1F0
F0F0
F0F0
0000
0200
0600
0400
ENDCHAR
STARTCHAR 0137
ENCODING 311
SWIDTH 560 0
DWIDTH 14 0
BBX 12 22 1 -4
BITMAP
F0F0
F0F0
F1F0
F3F0
F3E0
F7C0
FF80
FF80
FF00
FF00
FF00
FF80
F7C0
F3C0
F3E0
F1F0
F0F0
F0F0
0000
0200
0600
0400
ENDCHAR
STARTCHAR 0139
ENCODING 313
SWIDTH 400 0
DWIDTH 10 0
BBX 11 21 -1 0
BITMAP
7F80
FE00
C000
3C00
3C00
3C00
3C00
3C00
3C00
3C00
3C00
3C00
3C00
3C00
3C00
3C00
3C00
3FE0
3FE0
3FC0
3FC0
ENDCHAR
STARTCHAR 013A
ENCODING 314
SWIDTH 400 0
DWIDTH 10 0
BBX 11 21 -1 0
BITMAP
7F80
FE00
C000
3C00
3C00
3C00
3C00
3C00
3C00
3C00
3C00
3C00
3C00
3C00
3C00
3C00
3C00
3FE0
3FE0
3FC0
3FC0
ENDCHAR
STARTCHAR 013C
ENCODING 316
SWIDTH 400 0
DWIDTH 10 0
BBX 9 22 1 -4
BITMAP
F000
F000
F000
F000
F000
F000
F000
F000
F000
F000
F000
F000
F000
F000
FF80
FF80
FF00
FF00
0000
0C00
0800
1800
ENDCHAR
STARTCHAR 013D
ENCODING 317
SWIDTH 400 0
DWIDTH 10 0
BBX 10 22 0 0
BITMAP
8400
CC00
FC00
7800
7800
7800
7800
7800
7800
7800
7800
7800
7800
7800
7800
7800
7800
7800
7FC0
7FC0
7F80
7F80
ENDCHAR
STARTCHAR 013E
ENCODING 318
SWIDTH 400 0
DWIDTH 10 0
BBX 10 22 0 0
BITMAP
8400
CC00
FC00
7800
7800
7800
7800
7800
7800
7800
7800
7800
7800
7800
7800
7800
7800
7800
7FC0
7FC0
7F80
7F80
ENDCHAR
STARTCHAR 0141
ENCODING 321
SWIDTH 480 0
DWIDTH 12 0
BBX 12 18 1 0
BITMAP
3C00
3C00
3C00
3C00
3C00
3D80
3F80
3F00
3E00
FC00
FC00
BC00
3C00
3C00
3FF0
3FE0
3FE0
3FC0
ENDCHAR
STARTCHAR 0142
ENCODING 322
SWIDTH 480 0
DWIDTH 12 0
BBX 12 18 1 0
BITMAP
3C00
3C00
3C00
3C00
3C00
3D80
3F80
3F00
3E00
FC00
FC00
BC00
3C00
3C00
3FF0
3FE0
3FE0
3FC0
ENDCHAR
STARTCHAR 0143
ENCODING 323
SWIDTH 560 0
DWIDTH 14 0
BBX 12 21 1 0
BITMAP
1FE0
3F00
2000
30F0
70F0
78F0
F8F0
FCF0
FCF0
FEF0
FEF0
FEF0
F7F0
F7F0
F7F0
F3F0
F3F0
F1F0
F1F0
F0E0
F0E0
ENDCHAR
STARTCHAR 0144
ENCODING 324
SWIDTH 560 0
DWIDTH 14 0
BBX 12 21 1 0
BITMAP
1FE0
3F00
2000
30F0
70F0
78F0
F8F0
FCF0
FCF0
FEF0
FEF0
FEF0
F7F0
F7F0
F7F0
F3F0
F3F0
F1F0
F1F0
F0E0
F0E0
ENDCHAR
STARTCHAR 0145
ENCODING 325
SWIDTH 560 0
DWIDTH 14 0
BBX 12 22 1 -4
BITMAP
30F0
70F0
78F0
F8F0
FCF0
FCF0
FEF0
FEF0
FEF0
F7F0
F7F0
F7F0
F3F0
F3F0
F1F0
F1F0
F0E0
F0E0
0000
0200
0200
0600
ENDCHAR
STARTCHAR 0146
ENCODING 326
SWIDTH 560 0
DWIDTH 14 0
BBX 12 22 1 -4
BITMAP
30F0
70F0
78F0
F8F0
FCF0
FCF0
FEF0
FEF0
FEF0
F7F0
F7F0
F7F0
F3F0
F3F0
F1F0
F1F0
F0E0
F0E0
0000
0200
0200
0600
ENDCHAR
STARTCHAR 0147
ENCODING 327
SWIDTH 560 0
DWIDTH 14 0
BBX 12 22 1 0
BITMAP
1080
1980
0F80
0700
30F0
70F0
78F0
F8F0
FCF0
FCF0
FEF0
FEF0
FEF0
F7F0
F7F0
F7F0
F3F0
F3F0
F1F0
F1F0
F0E0
F0E0
ENDCHAR
STARTCHAR 0148
ENCODING 328
SWIDTH 560 0
DWIDTH 14 0
BBX 12 22 1 0
BITMAP
1080
1980
0F80
0700
30F0
70F0
78F0
F8F0
FCF0
FCF0
FEF0
FEF0
FEF0
F7F0
F7F0
F7F0
F3F0
F3F0
F1F0
F1F0
F0E0
F0E0
ENDCHAR
STARTCHAR 014C
ENCODING 332
SWIDTH 600 0
DWIDTH 15 0
BBX 14 21 1 0
BITMAP
3FF0
3FF0
3FF0
3FF0
7FF0
7FF8
FFFC
F07C
F03C
F03C
F03C
F03C
F03C
F03C
F03C
F03C
F07C
FFFC
FFF8
7FF8
3FF0
ENDCHAR
STARTCHAR 014D
ENCODING 333
SWIDTH 600 0
DWIDTH 15 0
BBX 14 21 1 0
BITMAP
3FF0
3FF0
3FF0
3FF0
7FF0
7FF8
FFFC
F07C
F03C
F03C
F03C
F03C
F03C
F03C
F03C
F03C
F07C
FFFC
FFF8
7FF8
3FF0
ENDCHAR
STARTCHAR 0150
ENCODING 336
SWIDTH 600 0
DWIDTH 15 0
BBX 14 23 1 0
BITMAP
02C0
02C0
06C0
0780
0580
3FF0
7FF0
7FF8
FFFC
F07C
F03C
F03C
F03C
F03C
F03C
F03C
F03C
F03C
F07C
FFFC
FFF8
7FF8
3FF0
ENDCHAR
STARTCHAR 0151
ENCODING 337
SWIDTH 600 0
DWIDTH 15 0
BBX 14 23 1 0
BITMAP
02C0
02C0
06C0
0780
0580
3FF0
7FF0
7FF8
FFFC
F07C
F03C
F03C
F03C
F03C
F03C
F03C
F03C
F03C
F07C
FFFC
FFF8
7FF8
3FF0
ENDCHAR
STARTCHAR 0152
ENCODING 338
SWIDTH 840 0
DWIDTH 21 0
BBX 20 18 1 0
BITMAP
3FFFC0
7FFFC0
7FFFE0
FFFFF0
F0F0F0
F0F000
F0F000
F0F000
F0FF00
F0FF00
F0FF00
F0F000
F0F000
F0F0F0
FFFFF0
FFFFE0
7FFFE0
3FFFC0
ENDCHAR
STARTCHAR 0153
ENCODING 339
SWIDTH 840 0
DWIDTH 21 0
BBX 20 18 1 0
BITMAP
3FFFC0
7FFFC0
7FFFE0
FFFFF0
F0F0F0
F0F000
F0F000
F0F000
F0FF00
F0FF00
F0FF00
F0F000
F0F000
F0F0F0
FFFFF0
FFFFE0
7FFFE0
3FFFC0
ENDCHAR
STARTCHAR 0154
ENCODING 340
SWIDTH 520 0
DWIDTH 13 0
BBX 12 21 1 0
BITMAP
1FC0
7F00
6000
FFC0
FFC0
FFE0
FFF0
F1F0
F0F0
F0F0
F1F0
FFE0
FFC0
FFC0
F3C0
F3C0
F1E0
F1E0
F1F0
F0F0
F0F0
ENDCHAR
STARTCHAR 0155
ENCODING 341
SWIDTH 520 0
DWIDTH 13 0
BBX 12 21 1 0
BITMAP
1FC0
7F00
6000
FFC0
FFC0
FFE0
FFF0
F1F0
F0F0
F0F0
F1F0
FFE0
FFC0
FFC0
F3C0
F3C0
F1E0
F1E0
F1F0
F0F0
F0F0
ENDCHAR
STARTCHAR 0156
ENCODING 342
SWIDTH 520 0
DWIDTH 13 0
BBX 12 22 1 -4
BITMAP
FFC0
FFC0
FFE0
FFF0
F1F0
F0F0
F0F0
F1F0
FFE0
FFC0
FFC0
F3C0
F3C0
F1E0
F1E0
F1F0
F0F0
F0F0
0000
0600
0600
0400
ENDCHAR
STARTCHAR 0157
ENCODING 343
SWIDTH 520 0
DWIDTH 13 0
BBX 12 22 1 -4
BITMAP
FFC0
FFC0
FFE0
FFF0
F1F0
F0F0
F0F0
F1F0
FFE0
FFC0
FFC0
F3C0
F3C0
F1E0
F1E0
F1F0
F0F0
F0F0
0000
0600
0600
0400
ENDCHAR
STARTCHAR 0158
ENCODING 344
SWIDTH 520 0
DWIDTH 13 0
BBX 12 22 1 0
BITMAP
2080
3180
1F00
0E00
FFC0
FFC0
FFE0
FFF0
F1F0
F0F0
F0F0
F1F0
FFE0
FFC0
FFC0
F3C0
F3C0
F1E0
F1E0
F1F0
F0F0
F0F0
ENDCHAR
STARTCHAR 0159
ENCODING 345
SWIDTH 520 0
DWIDTH 13 0
BBX 12 22 1 0
BITMAP
2080
3180
1F00
0E00
FFC0
FFC0
FFE0
FFF0
F1F0
F0F0
F0F0
F1F0
FFE0
FFC0
FFC0
F3C0
F3C0
F1E0
F1E0
F1F0
F0F0
F0F0
ENDCHAR
STARTCHAR 015C
ENCODING 348
SWIDTH 520 0
DWIDTH 13 0
BBX 12 22 1 0
BITMAP
3F00
7F80
E1C0
C0C0
7FC0
FFC0
FFE0
FFF0
F0F0
F800
FC00
7E00
3F00
1F80
0FC0
07E0
03F0
E1F0
FFF0
FFF0
7FF0
3FE0
ENDCHAR
STARTCHAR 015D
ENCODING 349
SWIDTH 520 0
DWIDTH 13 0
BBX 12 22 1 0
BITMAP
3F00
7F80
E1C0
C0C0
7FC0
FFC0
FFE0
FFF0
F0F0
F800
FC00
7E00
3F00
1F80
0FC0
07E0
03F0
E1F0
FFF0
FFF0
7FF0
3FE0
ENDCHAR
STARTCHAR 015E
ENCODING 350
SWIDTH 520 0
DWIDTH 13 0
BBX 12 22 1 -4
BITMAP
7FC0
FFC0
FFE0
FFF0
F0F0
F800
FC00
7E00
3F00
1F80
0FC0
07E0
03F0
E1F0
FFF0
FFF0
7FF0
3FE0
0300
0600
0E00
0E00
ENDCHAR
STARTCHAR 015F
ENCODING 351
SWIDTH 520 0
DWIDTH 13 0
BBX 12 22 1 -4
BITMAP
7FC0
FFC0
FFE0
FFF0
F0F0
F800
FC00
7E00
3F00
1F80
0FC0
07E0
03F0
E1F0
FFF0
FFF0
7FF0
3FE0
0300
0600
0E00
0E00
ENDCHAR
STARTCHAR 0160
ENCODING 352
SWIDTH 520 0
DWIDTH 13 0
BBX 12 22 1 0
BITMAP
2080
3180
1F00
0E00
7FC0
FFC0
FFE0
FFF0
F0F0
F800
FC00
7E00
3F00
1F80
0FC0
07E0
03F0
E1F0
FFF0
FFF0
7FF0
3FE0
ENDCHAR
STARTCHAR 0161
ENCODING 353
SWIDTH 520 0
DWIDTH 13 0
BBX 12 22 1 0
BITMAP
2080
3180
1F00
0E00
7FC0
FFC0
FFE0
FFF0
F0F0
F800
FC00
7E00
3F00
1F80
0FC0
07E0
03F0
E1F0
FFF0
FFF0
7FF0
3FE0
ENDCHAR
STARTCHAR 0162
ENCODING 354
SWIDTH 520 0
DWIDTH 13 0
BBX 13 22 0 -4
BITMAP
3FE0
7FF0
7FF8
FFF8
F7B8
C798
0780
0780
0780
0780
0780
0780
0780
0780
0780
0780
0780
0780
0100
0300
0700
0E00
ENDCHAR
STARTCHAR 0163
ENCODING 355
SWIDTH 520 0
DWIDTH 13 0
BBX 13 22 0 -4
BITMAP
3FE0
7FF0
7FF8
FFF8
F7B8
C798
0780
0780
0780
0780
0780
0780
0780
0780
0780
0780
0780
0780
0100
0300
0700
0E00
ENDCHAR
STARTCHAR 0164
ENCODING 356
SWIDTH 520 0
DWIDTH 13 0
BBX 13 22 0 0
BITMAP
1040
18C0
0F80
0700
3FE0
7FF0
7FF8
FFF8
F7B8
C798
0780
0780
0780
0780
0780
0780
0780
0780
0780
0780
0780
0780
ENDCHAR
STARTCHAR 0165
ENCODING 357
SWIDTH 520 0
DWIDTH 13 0
BBX 13 22 0 0
BITMAP
1040
18C0
0F80
0700
3FE0
7FF0
7FF8
FFF8
F7B8
C798
0780
0780
0780
0780
0780
0780
0780
0780
0780
0780
0780
0780
ENDCHAR
STARTCHAR 0166
ENCODING 358
SWIDTH 520 0
DWIDTH 13 0
BBX 13 18 0 0
BITMAP
3FE0
7FF0
7FF8
FFF8
F7B8
C798
0780
0780
3FF0
3FF0
3FF0
0780
0780
0780
0780
0780
0780
0780
ENDCHAR
STARTCHAR 0167
ENCODING 359
SWIDTH 520 0
DWIDTH 13 0
BBX 13 18 0 0
BITMAP
3FE0
7FF0
7FF8
FFF8
F7B8
C798
0780
0780
3FF0
3FF0
3FF0
0780
0780
0780
0780
0780
0780
0780
ENDCHAR
STARTCHAR 0168
ENCODING 360
SWIDTH 600 0
DWIDTH 15 0
BBX 13 22 1 0
BITMAP
0C00
3FB0
33F0
2040
F078
F078
F078
F078
F078
F078
F078
F078
F078
F078
F078
F078
F078
F078
FFF8
FFF8
7FF0
3FF0
ENDCHAR
STARTCHAR 0169
ENCODING 361
SWIDTH 600 0
DWIDTH 15 0
BBX 13 22 1 0
BITMAP
0C00
3FB0
33F0
2040
F078
F078
F078
F078
F078
F078
F078
F078
F078
F078
F078
F078
F078
F078
FFF8
FFF8
7FF0
3FF0
ENDCHAR
STARTCHAR 016A
ENCODING 362
SWIDTH 600 0
DWIDTH 15 0
BBX 13 21 1 0
BITMAP
3FF0
3FF0
3FF0
F078
F078
F078
F078
F078
F078
F078
F078
F078
F078
F078
F078
F078
F078
FFF8
FFF8
7FF0
3FF0
ENDCHAR
STARTCHAR 016B
ENCODING 363
SWIDTH 600 0
DWIDTH 15 0
BBX 13 21 1 0
BITMAP
3FF0
3FF0
3FF0
F078
F078
F078
F078
F078
F078
F078
F078
F078
F078
F078
F078
F078
F078
FFF8
FFF8
7FF0
3FF0
ENDCHAR
STARTCHAR 016E
ENCODING 366
SWIDTH 600 0
DWIDTH 15 0
BBX 13 22 1 0
BITMAP
0700
0500
0700
0700
F078
F078
F078
F078
F078
F078
F078
F078
F078
F078
F078
F078
F078
F078
FFF8
FFF8
7FF0
3FF0
ENDCHAR
STARTCHAR 016F
ENCODING 367
SWIDTH 600 0
DWIDTH 15 0
BBX 13 22 1 0
BITMAP
0700
0500
0700
0700
F078
F078
F078
F078
F078
F078
F078
F078
F078
F078
F078
F078
F078
F078
FFF8
FFF8
7FF0
3FF0
ENDCHAR
STARTCHAR 0170
ENCODING 368
SWIDTH 600 0
DWIDTH 15 0
BBX 13 23 1 0
BITMAP
02C0
02C0
06C0
0780
0580
F078
F078
F078
F078
F078
F078
F078
F078
F078
F078
F078
F078
F078
F078
FFF8
FFF8
7FF0
3FF0
ENDCHAR
STARTCHAR 0171
ENCODING 369
SWIDTH 600 0
DWIDTH 15 0
BBX 13 23 1 0
BITMAP
02C0
02C0
06C0
0780
0580
F078
F078
F078
F078
F078
F078
F078
F078
F078
F078
F078
F078
F078
F078
FFF8
FFF8
7FF0
3FF0
ENDCHAR
STARTCHAR 0172
ENCODING 370
SWIDTH 600 0
DWIDTH 15 0
BBX 13 22 1 -4
BITMAP
F078
F078
F078
F078
F078
F078
F078
F078
F078
F078
F078
F078
F078
F078
FFF8
FFF8
7FF0
3FF0
0600
0400
0780
0700
ENDCHAR
STARTCHAR 0173
ENCODING 371
SWIDTH 600 0
DWIDTH 15 0
BBX 13 22 1 -4
BITMAP
F078
F078
F078
F078
F078
F078
F078
F078
F078
F078
F078
F078
F078
F078
FFF8
FFF8
7FF0
3FF0
0600
0400
0780
0700
ENDCHAR
STARTCHAR 0174
ENCODING 372
SWIDTH 880 0
DWIDTH 22 0
BBX 20 22 1 0
BITMAP
01F800
03FC00
070E00
060600
F000F0
F000F0
F000F0
F000F0
F801F0
7871E0
78F1E0
78F9E0
79F9E0
7DF9E0
3DFBC0
3DDFC0
3F9FC0
3F9FC0
1F9FC0
1F8F80
1F8F80
1F0F80
ENDCHAR
STARTCHAR 0175
ENCODING 373
SWIDTH 880 0
DWIDTH 22 0
BBX 20 22 1 0
BITMAP
01F800
03FC00
070E00
060600
F000F0
F000F0
F000F0
F000F0
F801F0
7871E0
78F1E0
78F9E0
79F9E0
7DF9E0
3DFBC0
3DDFC0
3F9FC0
3F9FC0
1F9FC0
1F8F80
1F8F80
1F0F80
ENDCHAR
STARTCHAR 0176
ENCODING 374
SWIDTH 440 0
DWIDTH 11 0
BBX 12 22 0 0
BITMAP
1F80
3FC0
70E0
6060
F0F0
F0F0
F1F0
79E0
79E0
7BC0
3FC0
3F80
1F80
1F80
0F00
0F00
0F00
0F00
0F00
0F00
0F00
0F00
ENDCHAR
STARTCHAR 0177
ENCODING 375
SWIDTH 440 0
DWIDTH 11 0
BBX 12 22 0 0
BITMAP
1F80
3FC0
70E0
6060
F0F0
F0F0
F1F0
79E0
79E0
7BC0
3FC0
3F80
1F80
1F80
0F00
0F00
0F00
0F00
0F00
0F00
0F00
0F00
ENDCHAR
STARTCHAR 0178
ENCODING 376
SWIDTH 440 0
DWIDTH 11 0
BBX 12 21 0 0
BITMAP
1980
1980
1980
F0F0
F0F0
F1F0
79E0
79E0
7BC0
3FC0
3F80
1F80
1F80
0F00
0F00
0F00
0F00
0F00
0F00
0F00
0F00
ENDCHAR
STARTCHAR 017B
ENCODING 379
SWIDTH 560 0
DWIDTH 14 0
BBX 12 21 1 0
BITMAP
0700
0700
0600
FFC0
FFE0
FFF0
FFF0
01E0
03E0
07C0
07C0
0F80
1F00
1F00
3E00
3E00
7C00
FFF0
FFF0
7FF0
3FF0
ENDCHAR
STARTCHAR 017C
ENCODING 380
SWIDTH 560 0
DWIDTH 14 0
BBX 12 23 1 0
BITMAP
0600
0700
0700
0600
0000
FFC0
FFE0
FFF0
FFF0
01E0
03E0
07C0
07C0
0F80
1F00
1F00
3E00
3E00
7C00
FFF0
FFF0
7FF0
3FF0
ENDCHAR
STARTCHAR 017D
ENCODING 381
SWIDTH 560 0
DWIDTH 14 0
BBX 12 22 1 0
BITMAP
1080
1980
1F80
0700
FFC0
FFE0
FFF0
FFF0
01E0
03E0
07C0
07C0
0F80
1F00
1F00
3E00
3E00
7C00
FFF0
FFF0
7FF0
3FF0
ENDCHAR
STARTCHAR 017E
ENCODING 382
SWIDTH 560 0
DWIDTH 14 0
BBX 12 22 1 0
BITMAP
1080
1980
0F80
0700
FFC0
FFE0
FFF0
FFF0
01E0
03E0
07C0
07C0
0F80
1F00
1F00
3E00
3E00
7C00
FFF0
FFF0
7FF0
3FF0
ENDCHAR
STARTCHAR 01A0
ENCODING 416
SWIDTH 600 0
DWIDTH 15 0
BBX 15 19 1 0
BITMAP
000C
3FFE
7FFC
7FF8
FFFC
F07C
F03C
F03C
F03C
F03C
F03C
F03C
F03C
F03C
F07C
FFFC
FFF8
7FF8
3FF0
ENDCHAR
STARTCHAR 01A1
ENCODING 417
SWIDTH 600 0
DWIDTH 15 0
BBX 15 19 1 0
BITMAP
000C
3FFE
7FFC
7FF8
FFFC
F07C
F03C
F03C
F03C
F03C
F03C
F03C
F03C
F03C
F07C
FFFC
FFF8
7FF8
3FF0
ENDCHAR
STARTCHAR 01AF
ENCODING 431
SWIDTH 600 0
DWIDTH 15 0
BBX 14 19 1 0
BITMAP
000C
F07C
F07C
F078
F078
F078
F078
F078
F078
F078
F078
F078
F078
F078
F078
FFF8
FFF8
7FF0
3FF0
ENDCHAR
STARTCHAR 01B0
ENCODING 432
SWIDTH 600 0
DWIDTH 15 0
BBX 14 19 1 0
BITMAP
000C
F07C
F07C
F078
F078
F078
F078
F078
F078
F078
F078
F078
F078
F078
F078
FFF8
FFF8
7FF0
3FF0
ENDCHAR
STARTCHAR 0218
ENCODING 536
SWIDTH 520 0
DWIDTH 13 0
BBX 12 22 1 -4
BITMAP
7FC0
FFC0
FFE0
FFF0
F0F0
F800
FC00
7E00
3F00
1F80
0FC0
07E0
03F0
E1F0
FFF0
FFF0
7FF0
3FE0
0000
0200
0600
0400
ENDCHAR
STARTCHAR 0219
ENCODING 537
SWIDTH 520 0
DWIDTH 13 0
BBX 12 22 1 -4
BITMAP
7FC0
FFC0
FFE0
FFF0
F0F0
F800
FC00
7E00
3F00
1F80
0FC0
07E0
03F0
E1F0
FFF0
FFF0
7FF0
3FE0
0000
0200
0600
0400
ENDCHAR
STARTCHAR 021A
ENCODING 538
SWIDTH 520 0
DWIDTH 13 0
BBX 13 22 0 -4
BITMAP
3FE0
7FF0
7FF8
FFF8
F7B8
C798
0780
0780
0780
0780
0780
0780
0780
0780
0780
0780
0780
0780
0000
0300
0200
0600
ENDCHAR
STARTCHAR 021B
ENCODING 539
SWIDTH 520 0
DWIDTH 13 0
BBX 13 22 0 -4
BITMAP
3FE0
7FF0
7FF8
FFF8
F7B8
C798
0780
0780
0780
0780
0780
0780
0780
0780
0780
0780
0780
0780
0000
0300
0200
0600
ENDCHAR
STARTCHAR 0259
ENCODING 601
SWIDTH 520 0
DWIDTH 13 0
BBX 12 18 1 0
BITMAP
3FF0
7FF0
7FF0
FFF0
F0F0
00F0
00F0
00F0
FCF0
FCF0
FCF0
FCF0
F0F0
F0F0
FFF0
FFF0
FFF0
DFF0
ENDCHAR
STARTCHAR 02C6
ENCODING 710
SWIDTH 440 0
DWIDTH 11 0
BBX 11 4 0 18
BITMAP
3F80
7FC0
F0E0
C060
ENDCHAR
STARTCHAR 02C7
ENCODING 711
SWIDTH 280 0
DWIDTH 7 0
BBX 7 4 0 18
BITMAP
C2
E6
7C
38
ENDCHAR
STARTCHAR 02D8
ENCODING 728
SWIDTH 440 0
DWIDTH 11 0
BBX 11 4 0 18
BITMAP
C060
F0E0
7FC0
3F80
ENDCHAR
STARTCHAR 02D9
ENCODING 729
SWIDTH 160 0
DWIDTH 4 0
BBX 3 4 1 19
BITMAP
C0
E0
E0
C0
ENDCHAR
STARTCHAR 02DA
ENCODING 730
SWIDTH 160 0
DWIDTH 4 0
BBX 4 4 0 18
BITMAP
70
D0
F0
70
ENDCHAR
STARTCHAR 02DB
ENCODING 731
SWIDTH 200 0
DWIDTH 5 0
BBX 4 4 1 -4
BITMAP
C0
C0
F0
E0
ENDCHAR
STARTCHAR 02DC
ENCODING 732
SWIDTH 440 0
DWIDTH 11 0
BBX 11 4 0 18
BITMAP
1800
7F60
E7E0
8080
ENDCHAR
STARTCHAR 02DD
ENCODING 733
SWIDTH 240 0
DWIDTH 6 0
BBX 6 5 0 18
BITMAP
2C
2C
6C
78
D8
ENDCHAR
STARTCHAR 1E20
ENCODING 7712
SWIDTH 520 0
DWIDTH 13 0
BBX 12 21 1 0
BITMAP
FFC0
FFC0
FFC0
FFC0
FFE0
FFE0
FFF0
F0F0
F000
F000
F000
F3F0
F3F0
F3F0
F3F0
F0F0
F0F0
FFF0
FFF0
FFF0
FFB0
ENDCHAR
STARTCHAR 1E3E
ENCODING 7742
SWIDTH 680 0
DWIDTH 17 0
BBX 15 21 1 0
BITMAP
07F0
1FC0
1800
3C78
7C7C
7C7E
FE7E
FE7E
FEFE
F6FE
F6FE
F6FE
F7DE
F7DE
F7DE
F7DE
F3DE
F01E
F01E
F01E
F01E
ENDCHAR
STARTCHAR 1E3F
ENCODING 7743
SWIDTH 680 0
DWIDTH 17 0
BBX 15 21 1 0
BITMAP
07F0
1FC0
1800
3C78
7C7C
7C7E
FE7E
FE7E
FEFE
F6FE
F6FE
F6FE
F7DE
F7DE
F7DE
F7DE
F3DE
F01E
F01E
F01E
F01E
ENDCHAR
STARTCHAR 1E44
ENCODING 7748
SWIDTH 560 0
DWIDTH 14 0
BBX 12 21 1 0
BITMAP
0700
0700
0600
30F0
70F0
78F0
F8F0
FCF0
FCF0
FEF0
FEF0
FEF0
F7F0
F7F0
F7F0
F3F0
F3F0
F1F0
F1F0
F0E0
F0E0
ENDCHAR
STARTCHAR 1E45
ENCODING 7749
SWIDTH 560 0
DWIDTH 14 0
BBX 12 21 1 0
BITMAP
0700
0700
0600
30F0
70F0
78F0
F8F0
FCF0
FCF0
FEF0
FEF0
FEF0
F7F0
F7F0
F7F0
F3F0
F3F0
F1F0
F1F0
F0E0
F0E0
ENDCHAR
STARTCHAR 1E80
ENCODING 7808
SWIDTH 880 0
DWIDTH 22 0
BBX 20 21 1 0
BITMAP
07C000
07FC00
000000
F000F0
F000F0
F000F0
F000F0
F801F0
7871E0
78F1E0
78F9E0
79F9E0
7DF9E0
3DFBC0
3DDFC0
3F9FC0
3F9FC0
1F9FC0
1F8F80
1F8F80
1F0F80
ENDCHAR
STARTCHAR 1E81
ENCODING 7809
SWIDTH 880 0
DWIDTH 22 0
BBX 20 21 1 0
BITMAP
07C000
07FC00
000000
F000F0
F000F0
F000F0
F000F0
F801F0
7871E0
78F1E0
78F9E0
79F9E0
7DF9E0
3DFBC0
3DDFC0
3F9FC0
3F9FC0
1F9FC0
1F8F80
1F8F80
1F0F80
ENDCHAR
STARTCHAR 1E82
ENCODING 7810
SWIDTH 880 0
DWIDTH 22 0
BBX 20 21 1 0
BITMAP
01FC00
07F000
060000
F000F0
F000F0
F000F0
F000F0
F801F0
7871E0
78F1E0
78F9E0
79F9E0
7DF9E0
3DFBC0
3DDFC0
3F9FC0
3F9FC0
1F9FC0
1F8F80
1F8F80
1F0F80
ENDCHAR
STARTCHAR 1E83
ENCODING 7811
SWIDTH 880 0
DWIDTH 22 0
BBX 20 21 1 0
BITMAP
01FC00
07F000
060000
F000F0
F000F0
F000F0
F000F0
F801F0
7871E0
78F1E0
78F9E0
79F9E0
7DF9E0
3DFBC0
3DDFC0
3F9FC0
3F9FC0
1F9FC0
1F8F80
1F8F80
1F0F80
ENDCHAR
STARTCHAR 1E84
ENCODING 7812
SWIDTH 880 0
DWIDTH 22 0
BBX 20 21 1 0
BITMAP
019800
019800
019800
F000F0
F000F0
F000F0
F000F0
F801F0
7871E0
78F1E0
78F9E0
79F9E0
7DF9E0
3DFBC0
3DDFC0
3F9FC0
3F9FC0
1F9FC0
1F8F80
1F8F80
1F0F80
ENDCHAR
STARTCHAR 1E85
ENCODING 7813
SWIDTH 880 0
DWIDTH 22 0
BBX 20 21 1 0
BITMAP
019800
019800
019800
F000F0
F000F0
F000F0
F000F0
F801F0
7871E0
78F1E0
78F9E0
79F9E0
7DF9E0
3DFBC0
3DDFC0
3F9FC0
3F9FC0
1F9FC0
1F8F80
1F8F80
1F0F80
ENDCHAR
STARTCHAR 1EA0
ENCODING 7840
SWIDTH 560 0
DWIDTH 14 0
BBX 14 20 0 -2
BITMAP
0FC0
0FE0
1FE0
1FF0
1CF0
1C70
1C70
3C70
3C78
3878
3878
3C78
7FF8
7FFC
783C
783C
703C
F03C
0000
0780
ENDCHAR
STARTCHAR 1EA1
ENCODING 7841
SWIDTH 560 0
DWIDTH 14 0
BBX 14 20 0 -2
BITMAP
0FC0
0FE0
1FE0
1FF0
1CF0
1C70
1C70
3C70
3C78
3878
3878
3C78
7FF8
7FFC
783C
783C
703C
F03C
0000
0780
ENDCHAR
STARTCHAR 1EA2
ENCODING 7842
SWIDTH 560 0
DWIDTH 14 0
BBX 14 23 0 0
BITMAP
0380
07C0
0480
0180
0100
0FC0
0FE0
1FE0
1FF0
1CF0
1C70
1C70
3C70
3C78
3878
3878
3C78
7FF8
7FFC
783C
783C
703C
F03C
ENDCHAR
STARTCHAR 1EA3
ENCODING 7843
SWIDTH 560 0
DWIDTH 14 0
BBX 14 23 0 0
BITMAP
0380
07C0
0480
0180
0100
0FC0
0FE0
1FE0
1FF0
1CF0
1C70
1C70
3C70
3C78
3878
3878
3C78
7FF8
7FFC
783C
783C
703C
F03C
ENDCHAR
STARTCHAR 1EA4
ENCODING 7844
SWIDTH 560 0
DWIDTH 14 0
BBX 14 25 0 0
BITMAP
0FF0
1F80
1000
0FC0
1FE0
3870
3030
0FC0
0FE0
1FE0
1FF0
1CF0
1C70
1C70
3C70
3C78
3878
3878
3C78
7FF8
7FFC
783C
783C
703C
F03C
ENDCHAR
STARTCHAR 1EA5
ENCODING 7845
SWIDTH 560 0
DWIDTH 14 0
BBX 14 25 0 0
BITMAP
0FF0
1F80
1000
0FC0
1FE0
3870
3030
0FC0
0FE0
1FE0
1FF0
1CF0
1C70
1C70
3C70
3C78
3878
3878
3C78
7FF8
7FFC
783C
783C
703C
F03C
ENDCHAR
STARTCHAR 1EA6
ENCODING 7846
SWIDTH 560 0
DWIDTH 14 0
BBX 14 25 0 0
BITMAP
1E00
1FF0
0000
0FC0
1FE0
3870
3030
0FC0
0FE0
1FE0
1FF0
1CF0
1C70
1C70
3C70
3C78
3878
3878
3C78
7FF8
7FFC
783C
783C
703C
F03C
ENDCHAR
STARTCHAR 1EA7
ENCODING 7847
SWIDTH 560 0
DWIDTH 14 0
BBX 14 25 0 0
BITMAP
1E00
1FF0
0000
0FC0
1FE0
3870
3030
0FC0
0FE0
1FE0
1FF0
1CF0
1C70
1C70
3C70
3C78
3878
3878
3C78
7FF8
7FFC
783C
783C
703C
F03C
ENDCHAR
STARTCHAR 1EA8
ENCODING 7848
SWIDTH 560 0
DWIDTH 14 0
BBX 14 27 0 0
BITMAP
0380
07C0
0480
0100
0100
0FC0
1FE0
3870
3030
0FC0
0FE0
1FE0
1FF0
1CF0
1C70
1C70
3C70
3C78
3878
3878
3C78
7FF8
7FFC
783C
783C
703C
F03C
ENDCHAR
STARTCHAR 1EA9
ENCODING 7849
SWIDTH 560 0
DWIDTH 14 0
BBX 14 27 0 0
BITMAP
0380
07C0
0480
0100
0100
0FC0
1FE0
3870
3030
0FC0
0FE0
1FE0
1FF0
1CF0
1C70
1C70
3C70
3C78
3878
3878
3C78
7FF8
7FFC
783C
783C
703C
F03C
ENDCHAR
STARTCHAR 1EAA
ENCODING 7850
SWIDTH 560 0
DWIDTH 14 0
BBX 14 26 0 0
BITMAP
0600
1FF0
39F0
2000
0FC0
1FE0
3870
3030
0FC0
0FE0
1FE0
1FF0
1CF0
1C70
1C70
3C70
3C78
3878
3878
3C78
7FF8
7FFC
783C
783C
703C
F03C
ENDCHAR
STARTCHAR 1EAB
ENCODING 7851
SWIDTH 560 0
DWIDTH 14 0
BBX 14 26 0 0
BITMAP
0600
1FF0
39F0
2000
0FC0
1FE0
3870
3030
0FC0
0FE0
1FE0
1FF0
1CF0
1C70
1C70
3C70
3C78
3878
3878
3C78
7FF8
7FFC
783C
783C
703C
F03C
ENDCHAR
STARTCHAR 1EAC
ENCODING 7852
SWIDTH 560 0
DWIDTH 14 0
BBX 14 24 0 -2
BITMAP
0FC0
1FE0
3870
3030
0FC0
0FE0
1FE0
1FF0
1CF0
1C70
1C70
3C70
3C78
3878
3878
3C78
7FF8
7FFC
783C
783C
703C
F03C
0000
0780
ENDCHAR
STARTCHAR 1EAD
ENCODING 7853
SWIDTH 560 0
DWIDTH 14 0
BBX 14 25 0 -3
BITMAP
0FC0
1FE0
3870
3030
0FC0
0FE0
1FE0
1FF0
1CF0
1C70
1C70
3C70
3C78
3878
3878
3C78
7FF8
7FFC
783C
783C
703C
F03C
0000
0780
0780
ENDCHAR
STARTCHAR 1EAE
ENCODING 7854
SWIDTH 560 0
DWIDTH 14 0
BBX 14 25 0 0
BITMAP
0FF0
1F80
1000
3030
3870
1FE0
0FC0
0FC0
0FE0
1FE0
1FF0
1CF0
1C70
1C70
3C70
3C78
3878
3878
3C78
7FF8
7FFC
783C
783C
703C
F03C
ENDCHAR
STARTCHAR 1EAF
ENCODING 7855
SWIDTH 560 0
DWIDTH 14 0
BBX 14 25 0 0
BITMAP
0FF0
1F80
1000
3030
3870
1FE0
0FC0
0FC0
0FE0
1FE0
1FF0
1CF0
1C70
1C70
3C70
3C78
3878
3878
3C78
7FF8
7FFC
783C
783C
703C
F03C
ENDCHAR
STARTCHAR 1EB0
ENCODING 7856
SWIDTH 560 0
DWIDTH 14 0
BBX 14 25 0 0
BITMAP
1E00
1FF0
0000
3030
3870
1FE0
0FC0
0FC0
0FE0
1FE0
1FF0
1CF0
1C70
1C70
3C70
3C78
3878
3878
3C78
7FF8
7FFC
783C
783C
703C
F03C
ENDCHAR
STARTCHAR 1EB1
ENCODING 7857
SWIDTH 560 0
DWIDTH 14 0
BBX 14 25 0 0
BITMAP
1E00
1FF0
0000
3030
3870
1FE0
0FC0
0FC0
0FE0
1FE0
1FF0
1CF0
1C70
1C70
3C70
3C78
3878
3878
3C78
7FF8
7FFC
783C
783C
703C
F03C
ENDCHAR
STARTCHAR 1EB2
ENCODING 7858
SWIDTH 560 0
DWIDTH 14 0
BBX 14 26 0 0
BITMAP
0380
07C0
0180
0100
3030
3870
1FE0
0FC0
0FC0
0FE0
1FE0
1FF0
1CF0
1C70
1C70
3C70
3C78
3878
3878
3C78
7FF8
7FFC
783C
783C
703C
F03C
ENDCHAR
STARTCHAR 1EB3
ENCODING 7859
SWIDTH 560 0
DWIDTH 14 0
BBX 14 26 0 0
BITMAP
0380
07C0
0180
0100
3030
3870
1FE0
0FC0
0FC0
0FE0
1FE0
1FF0
1CF0
1C70
1C70
3C70
3C78
3878
3878
3C78
7FF8
7FFC
783C
783C
703C
F03C
ENDCHAR
STARTCHAR 1EB4
ENCODING 7860
SWIDTH 560 0
DWIDTH 14 0
BBX 14 26 0 0
BITMAP
0600
1FF0
39F0
2000
3030
3870
1FE0
0FC0
0FC0
0FE0
1FE0
1FF0
1CF0
1C70
1C70
3C70
3C78
3878
3878
3C78
7FF8
7FFC
783C
783C
703C
F03C
ENDCHAR
STARTCHAR 1EB5
ENCODING 7861
SWIDTH 560 0
DWIDTH 14 0
BBX 14 26 0 0
BITMAP
0600
1FF0
39F0
2000
3030
3870
1FE0
0FC0
0FC0
0FE0
1FE0
1FF0
1CF0
1C70
1C70
3C70
3C78
3878
3878
3C78
7FF8
7FFC
783C
783C
703C
F03C
ENDCHAR
STARTCHAR 1EB6
ENCODING 7862
SWIDTH 560 0
DWIDTH 14 0
BBX 14 24 0 -2
BITMAP
3030
3870
1FE0
0FC0
0FC0
0FE0
1FE0
1FF0
1CF0
1C70
1C70
3C70
3C78
3878
3878
3C78
7FF8
7FFC
783C
783C
703C
F03C
0000
0780
ENDCHAR
STARTCHAR 1EB7
ENCODING 7863
SWIDTH 560 0
DWIDTH 14 0
BBX 14 25 0 -3
BITMAP
3030
3870
1FE0
0FC0
0FC0
0FE0
1FE0
1FF0
1CF0
1C70
1C70
3C70
3C78
3878
3878
3C78
7FF8
7FFC
783C
783C
703C
F03C
0000
0780
0780
ENDCHAR
STARTCHAR 1EB8
ENCODING 7864
SWIDTH 520 0
DWIDTH 13 0
BBX 12 21 1 -3
BITMAP
FFC0
FFC0
FFE0
FFF0
F0F0
F000
F000
F000
FF80
FF80
FF80
F000
F000
F0F0
FFF0
FFE0
FFE0
FFC0
0000
1F00
1F00
ENDCHAR
STARTCHAR 1EB9
ENCODING 7865
SWIDTH 520 0
DWIDTH 13 0
BBX 12 21 1 -3
BITMAP
FFC0
FFC0
FFE0
FFF0
F0F0
F000
F000
F000
FF80
FF80
FF80
F000
F000
F0F0
FFF0
FFE0
FFE0
FFC0
0000
1F00
1F00
ENDCHAR
STARTCHAR 1EBA
ENCODING 7866
SWIDTH 520 0
DWIDTH 13 0
BBX 12 23 1 0
BITMAP
0E00
1F00
1600
0400
0400
FFC0
FFC0
FFE0
FFF0
F0F0
F000
F000
F000
FF80
FF80
FF80
F000
F000
F0F0
FFF0
FFE0
FFE0
FFC0
ENDCHAR
STARTCHAR 1EBB
ENCODING 7867
SWIDTH 520 0
DWIDTH 13 0
BBX 12 23 1 0
BITMAP
0E00
1F00
1600
0400
0400
FFC0
FFC0
FFE0
FFF0
F0F0
F000
F000
F000
FF80
FF80
FF80
F000
F000
F0F0
FFF0
FFE0
FFE0
FFC0
ENDCHAR
STARTCHAR 1EBC
ENCODING 7868
SWIDTH 520 0
DWIDTH 13 0
BBX 12 22 1 0
BITMAP
1800
7EC0
E7C0
8000
FFC0
FFC0
FFE0
FFF0
F0F0
F000
F000
F000
FF80
FF80
FF80
F000
F000
F0F0
FFF0
FFE0
FFE0
FFC0
ENDCHAR
STARTCHAR 1EBD
ENCODING 7869
SWIDTH 520 0
DWIDTH 13 0
BBX 12 22 1 0
BITMAP
1800
7EC0
E7C0
8000
FFC0
FFC0
FFE0
FFF0
F0F0
F000
F000
F000
FF80
FF80
FF80
F000
F000
F0F0
FFF0
FFE0
FFE0
FFC0
ENDCHAR
STARTCHAR 1EBE
ENCODING 7870
SWIDTH 520 0
DWIDTH 13 0
BBX 12 25 1 0
BITMAP
3FC0
7F00
6000
3F00
7F80
E1C0
C0C0
FFC0
FFC0
FFE0
FFF0
F0F0
F000
F000
F000
FF80
FF80
FF80
F000
F000
F0F0
FFF0
FFE0
FFE0
FFC0
ENDCHAR
STARTCHAR 1EBF
ENCODING 7871
SWIDTH 520 0
DWIDTH 13 0
BBX 12 25 1 0
BITMAP
3FC0
7F00
6000
3F00
7F80
E1C0
C0C0
FFC0
FFC0
FFE0
FFF0
F0F0
F000
F000
F000
FF80
FF80
FF80
F000
F000
F0F0
FFF0
FFE0
FFE0
FFC0
ENDCHAR
STARTCHAR 1EC0
ENCODING 7872
SWIDTH 520 0
DWIDTH 13 0
BBX 12 25 1 0
BITMAP
7C00
7FC0
0000
3F00
7F80
E1C0
C0C0
FFC0
FFC0
FFE0
FFF0
F0F0
F000
F000
F000
FF80
FF80
FF80
F000
F000
F0F0
FFF0
FFE0
FFE0
FFC0
ENDCHAR
STARTCHAR 1EC1
ENCODING 7873
SWIDTH 520 0
DWIDTH 13 0
BBX 12 25 1 0
BITMAP
7C00
7FC0
0000
3F00
7F80
E1C0
C0C0
FFC0
FFC0
FFE0
FFF0
F0F0
F000
F000
F000
FF80
FF80
FF80
F000
F000
F0F0
FFF0
FFE0
FFE0
FFC0
ENDCHAR
STARTCHAR 1EC2
ENCODING 7874
SWIDTH 520 0
DWIDTH 13 0
BBX 12 27 1 0
BITMAP
0E00
1F00
1600
0400
0400
3F00
7F80
E1C0
C0C0
FFC0
FFC0
FFE0
FFF0
F0F0
F000
F000
F000
FF80
FF80
FF80
F000
F000
F0F0
FFF0
FFE0
FFE0
FFC0
ENDCHAR
STARTCHAR 1EC3
ENCODING 7875
SWIDTH 520 0
DWIDTH 13 0
BBX 12 27 1 0
BITMAP
0E00
1F00
1600
0400
0400
3F00
7F80
E1C0
C0C0
FFC0
FFC0
FFE0
FFF0
F0F0
F000
F000
F000
FF80
FF80
FF80
F000
F000
F0F0
FFF0
FFE0
FFE0
FFC0
ENDCHAR
STARTCHAR 1EC4
ENCODING 7876
SWIDTH 520 0
DWIDTH 13 0
BBX 12 26 1 0
BITMAP
3800
FFC0
C7C0
8000
3F00
7F80
E1C0
C0C0
FFC0
FFC0
FFE0
FFF0
F0F0
F000
F000
F000
FF80
FF80
FF80
F000
F000
F0F0
FFF0
FFE0
FFE0
FFC0
ENDCHAR
STARTCHAR 1EC5
ENCODING 7877
SWIDTH 520 0
DWIDTH 13 0
BBX 12 26 1 0
BITMAP
3800
FFC0
C7C0
8000
3F00
7F80
E1C0
C0C0
FFC0
FFC0
FFE0
FFF0
F0F0
F000
F000
F000
FF80
FF80
FF80
F000
F000
F0F0
FFF0
FFE0
FFE0
FFC0
ENDCHAR
STARTCHAR 1EC6
ENCODING 7878
SWIDTH 520 0
DWIDTH 13 0
BBX 12 25 1 -3
BITMAP
3F00
7F80
E1C0
C0C0
FFC0
FFC0
FFE0
FFF0
F0F0
F000
F000
F000
FF80
FF80
FF80
F000
F000
F0F0
FFF0
FFE0
FFE0
FFC0
0000
1F00
1F00
ENDCHAR
STARTCHAR 1EC7
ENCODING 7879
SWIDTH 520 0
DWIDTH 13 0
BBX 12 25 1 -3
BITMAP
3F00
7F80
E1C0
C0C0
FFC0
FFC0
FFE0
FFF0
F0F0
F000
F000
F000
FF80
FF80
FF80
F000
F000
F0F0
FFF0
FFE0
FFE0
FFC0
0000
1F00
1F00
ENDCHAR
STARTCHAR 1EC8
ENCODING 7880
SWIDTH 200 0
DWIDTH 5 0
BBX 5 23 0 0
BITMAP
78
78
D8
30
30
78
78
78
78
78
78
78
78
78
78
78
78
78
78
78
78
78
78
ENDCHAR
STARTCHAR 1EC9
ENCODING 7881
SWIDTH 200 0
DWIDTH 5 0
BBX 5 23 0 0
BITMAP
78
78
D8
30
30
78
78
78
78
78
78
78
78
78
78
78
78
78
78
78
78
78
78
ENDCHAR
STARTCHAR 1ECA
ENCODING 7882
SWIDTH 200 0
DWIDTH 5 0
BBX 4 21 1 -3
BITMAP
F0
F0
F0
F0
F0
F0
F0
F0
F0
F0
F0
F0
F0
F0
F0
F0
F0
F0
00
F0
F0
ENDCHAR
STARTCHAR 1ECB
ENCODING 7883
SWIDTH 200 0
DWIDTH 5 0
BBX 4 21 1 -3
BITMAP
F0
F0
F0
F0
F0
F0
F0
F0
F0
F0
F0
F0
F0
F0
F0
F0
F0
F0
00
F0
F0
ENDCHAR
STARTCHAR 1ECC
ENCODING 7884
SWIDTH 600 0
DWIDTH 15 0
BBX 14 21 1 -3
BITMAP
3FF0
7FF0
7FF8
FFFC
F07C
F03C
F03C
F03C
F03C
F03C
F03C
F03C
F03C
F07C
FFFC
FFF8
7FF8
3FF0
0000
0F80
0F80
ENDCHAR
STARTCHAR 1ECD
ENCODING 7885
SWIDTH 600 0
DWIDTH 15 0
BBX 14 21 1 -3
BITMAP
3FF0
7FF0
7FF8
FFFC
F07C
F03C
F03C
F03C
F03C
F03C
F03C
F03C
F03C
F07C
FFFC
FFF8
7FF8
3FF0
0000
0F80
0F80
ENDCHAR
STARTCHAR 1ECE
ENCODING 7886
SWIDTH 600 0
DWIDTH 15 0
BBX 14 23 1 0
BITMAP
0780
0780
0580
0300
0300
3FF0
7FF0
7FF8
FFFC
F07C
F03C
F03C
F03C
F03C
F03C
F03C
F03C
F03C
F07C
FFFC
FFF8
7FF8
3FF0
ENDCHAR
STARTCHAR 1ECF
ENCODING 7887
SWIDTH 600 0
DWIDTH 15 0
BBX 14 23 1 0
BITMAP
0780
0780
0580
0300
0300
3FF0
7FF0
7FF8
FFFC
F07C
F03C
F03C
F03C
F03C
F03C
F03C
F03C
F03C
F07C
FFFC
FFF8
7FF8
3FF0
ENDCHAR
STARTCHAR 1ED0
ENCODING 7888
SWIDTH 600 0
DWIDTH 15 0
BBX 14 25 1 0
BITMAP
0FF0
1F80
1000
0FC0
1FE0
3870
3030
3FF0
7FF0
7FF8
FFFC
F07C
F03C
F03C
F03C
F03C
F03C
F03C
F03C
F03C
F07C
FFFC
FFF8
7FF8
3FF0
ENDCHAR
STARTCHAR 1ED1
ENCODING 7889
SWIDTH 600 0
DWIDTH 15 0
BBX 14 25 1 0
BITMAP
0FF0
1F80
1000
0FC0
1FE0
3870
3030
3FF0
7FF0
7FF8
FFFC
F07C
F03C
F03C
F03C
F03C
F03C
F03C
F03C
F03C
F07C
FFFC
FFF8
7FF8
3FF0
ENDCHAR
STARTCHAR 1ED2
ENCODING 7890
SWIDTH 600 0
DWIDTH 15 0
BBX 14 25 1 0
BITMAP
1E00
1FF0
0010
0FC0
1FE0
3870
3030
3FF0
7FF0
7FF8
FFFC
F07C
F03C
F03C
F03C
F03C
F03C
F03C
F03C
F03C
F07C
FFFC
FFF8
7FF8
3FF0
ENDCHAR
STARTCHAR 1ED3
ENCODING 7891
SWIDTH 600 0
DWIDTH 15 0
BBX 14 25 1 0
BITMAP
1E00
1FF0
0010
0FC0
1FE0
3870
3030
3FF0
7FF0
7FF8
FFFC
F07C
F03C
F03C
F03C
F03C
F03C
F03C
F03C
F03C
F07C
FFFC
FFF8
7FF8
3FF0
ENDCHAR
STARTCHAR 1ED4
ENCODING 7892
SWIDTH 600 0
DWIDTH 15 0
BBX 14 27 1 0
BITMAP
0780
0780
0580
0300
0300
0FC0
1FE0
3870
3030
3FF0
7FF0
7FF8
FFFC
F07C
F03C
F03C
F03C
F03C
F03C
F03C
F03C
F03C
F07C
FFFC
FFF8
7FF8
3FF0
ENDCHAR
STARTCHAR 1ED5
ENCODING 7893
SWIDTH 600 0
DWIDTH 15 0
BBX 14 27 1 0
BITMAP
0780
0780
0580
0300
0300
0FC0
1FE0
3870
3030
3FF0
7FF0
7FF8
FFFC
F07C
F03C
F03C
F03C
F03C
F03C
F03C
F03C
F03C
F07C
FFFC
FFF8
7FF8
3FF0
ENDCHAR
STARTCHAR 1ED6
ENCODING 7894
SWIDTH 600 0
DWIDTH 15 0
BBX 14 26 1 0
BITMAP
0C00
3FB0
31F0
2000
0FC0
1FE0
3870
3030
3FF0
7FF0
7FF8
FFFC
F07C
F03C
F03C
F03C
F03C
F03C
F03C
F03C
F03C
F07C
FFFC
FFF8
7FF8
3FF0
ENDCHAR
STARTCHAR 1ED7
ENCODING 7895
SWIDTH 600 0
DWIDTH 15 0
BBX 14 26 1 0
BITMAP
0C00
3FB0
31F0
2000
0FC0
1FE0
3870
3030
3FF0
7FF0
7FF8
FFFC
F07C
F03C
F03C
F03C
F03C
F03C
F03C
F03C
F03C
F07C
FFFC
FFF8
7FF8
3FF0
ENDCHAR
STARTCHAR 1ED8
ENCODING 7896
SWIDTH 600 0
DWIDTH 15 0
BBX 14 25 1 -3
BITMAP
0FC0
1FE0
3870
3030
3FF0
7FF0
7FF8
FFFC
F07C
F03C
F03C
F03C
F03C
F03C
F03C
F03C
F03C
F07C
FFFC
FFF8
7FF8
3FF0
0000
0F80
0F80
ENDCHAR
STARTCHAR 1ED9
ENCODING 7897
SWIDTH 600 0
DWIDTH 15 0
BBX 14 25 1 -3
BITMAP
0FC0
1FE0
3870
3030
3FF0
7FF0
7FF8
FFFC
F07C
F03C
F03C
F03C
F03C
F03C
F03C
F03C
F03C
F07C
FFFC
FFF8
7FF8
3FF0
0000
0F80
0F80
ENDCHAR
STARTCHAR 1EDA
ENCODING 7898
SWIDTH 600 0
DWIDTH 15 0
BBX 15 21 1 0
BITMAP
0FE0
3F80
300C
3FFE
7FFC
7FF8
FFFC
F07C
F03C
F03C
F03C
F03C
F03C
F03C
F03C
F03C
F07C
FFFC
FFF8
7FF8
3FF0
ENDCHAR
STARTCHAR 1EDB
ENCODING 7899
SWIDTH 600 0
DWIDTH 15 0
BBX 15 21 1 0
BITMAP
0FE0
3F80
300C
3FFE
7FFC
7FF8
FFFC
F07C
F03C
F03C
F03C
F03C
F03C
F03C
F03C
F03C
F07C
FFFC
FFF8
7FF8
3FF0
ENDCHAR
STARTCHAR 1EDC
ENCODING 7900
SWIDTH 600 0
DWIDTH 15 0
BBX 15 21 1 0
BITMAP
3C00
3FE0
002C
3FFE
7FFC
7FF8
FFFC
F07C
F03C
F03C
F03C
F03C
F03C
F03C
F03C
F03C
F07C
FFFC
FFF8
7FF8
3FF0
ENDCHAR
STARTCHAR 1EDD
ENCODING 7901
SWIDTH 600 0
DWIDTH 15 0
BBX 15 21 1 0
BITMAP
3C00
3FE0
002C
3FFE
7FFC
7FF8
FFFC
F07C
F03C
F03C
F03C
F03C
F03C
F03C
F03C
F03C
F07C
FFFC
FFF8
7FF8
3FF0
ENDCHAR
STARTCHAR 1EDE
ENCODING 7902
SWIDTH 600 0
DWIDTH 15 0
BBX 15 23 1 0
BITMAP
0780
0780
0580
0300
030C
3FFE
7FFC
7FF8
FFFC
F07C
F03C
F03C
F03C
F03C
F03C
F03C
F03C
F03C
F07C
FFFC
FFF8
7FF8
3FF0
ENDCHAR
STARTCHAR 1EDF
ENCODING 7903
SWIDTH 600 0
DWIDTH 15 0
BBX 15 23 1 0
BITMAP
0780
0780
0580
0300
030C
3FFE
7FFC
7FF8
FFFC
F07C
F03C
F03C
F03C
F03C
F03C
F03C
F03C
F03C
F07C
FFFC
FFF8
7FF8
3FF0
ENDCHAR
STARTCHAR 1EE0
ENCODING 7904
SWIDTH 600 0
DWIDTH 15 0
BBX 15 23 1 0
BITMAP
0C00
3FB0
31F0
2000
000C
3FFE
7FFC
7FF8
FFFC
F07C
F03C
F03C
F03C
F03C
F03C
F03C
F03C
F03C
F07C
FFFC
FFF8
7FF8
3FF0
ENDCHAR
STARTCHAR 1EE1
ENCODING 7905
SWIDTH 600 0
DWIDTH 15 0
BBX 15 23 1 0
BITMAP
0C00
3FB0
31F0
2000
000C
3FFE
7FFC
7FF8
FFFC
F07C
F03C
F03C
F03C
F03C
F03C
F03C
F03C
F03C
F07C
FFFC
FFF8
7FF8
3FF0
ENDCHAR
STARTCHAR 1EE2
ENCODING 7906
SWIDTH 600 0
DWIDTH 15 0
BBX 15 22 1 -3
BITMAP
000C
3FFE
7FFC
7FF8
FFFC
F07C
F03C
F03C
F03C
F03C
F03C
F03C
F03C
F03C
F07C
FFFC
FFF8
7FF8
3FF0
0000
0F80
0F80
ENDCHAR
STARTCHAR 1EE3
ENCODING 7907
SWIDTH 600 0
DWIDTH 15 0
BBX 15 22 1 -3
BITMAP
000C
3FFE
7FFC
7FF8
FFFC
F07C
F03C
F03C
F03C
F03C
F03C
F03C
F03C
F03C
F07C
FFFC
FFF8
7FF8
3FF0
0000
0F80
0F80
ENDCHAR
STARTCHAR 1EE4
ENCODING 7908
SWIDTH 600 0
DWIDTH 15 0
BBX 13 21 1 -3
BITMAP
F078
F078
F078
F078
F078
F078
F078
F078
F078
F078
F078
F078
F078
F078
FFF8
FFF8
7FF0
3FF0
0000
0F80
0F80
ENDCHAR
STARTCHAR 1EE5
ENCODING 7909
SWIDTH 600 0
DWIDTH 15 0
BBX 13 21 1 -3
BITMAP
F078
F078
F078
F078
F078
F078
F078
F078
F078
F078
F078
F078
F078
F078
FFF8
FFF8
7FF0
3FF0
0000
0F80
0F80
ENDCHAR
STARTCHAR 1EE6
ENCODING 7910
SWIDTH 600 0
DWIDTH 15 0
BBX 13 23 1 0
BITMAP
0700
0F80
0D80
0300
0300
F078
F078
F078
F078
F078
F078
F078
F078
F078
F078
F078
F078
F078
F078
FFF8
FFF8
7FF0
3FF0
ENDCHAR
STARTCHAR 1EE7
ENCODING 7911
SWIDTH 600 0
DWIDTH 15 0
BBX 13 23 1 0
BITMAP
0700
0F80
0D80
0300
0300
F078
F078
F078
F078
F078
F078
F078
F078
F078
F078
F078
F078
F078
F078
FFF8
FFF8
7FF0
3FF0
ENDCHAR
STARTCHAR 1EE8
ENCODING 7912
SWIDTH 600 0
DWIDTH 15 0
BBX 14 21 1 0
BITMAP
0FE0
3F80
300C
F07C
F07C
F078
F078
F078
F078
F078
F078
F078
F078
F078
F078
F078
F078
FFF8
FFF8
7FF0
3FF0
ENDCHAR
STARTCHAR 1EE9
ENCODING 7913
SWIDTH 600 0
DWIDTH 15 0
BBX 14 21 1 0
BITMAP
0FE0
3F80
300C
F07C
F07C
F078
F078
F078
F078
F078
F078
F078
F078
F078
F078
F078
F078
FFF8
FFF8
7FF0
3FF0
ENDCHAR
STARTCHAR 1EEA
ENCODING 7914
SWIDTH 600 0
DWIDTH 15 0
BBX 14 21 1 0
BITMAP
3C00
3FE0
002C
F07C
F07C
F078
F078
F078
F078
F078
F078
F078
F078
F078
F078
F078
F078
FFF8
FFF8
7FF0
3FF0
ENDCHAR
STARTCHAR 1EEB
ENCODING 7915
SWIDTH 600 0
DWIDTH 15 0
BBX 14 21 1 0
BITMAP
3C00
3FE0
002C
F07C
F07C
F078
F078
F078
F078
F078
F078
F078
F078
F078
F078
F078
F078
FFF8
FFF8
7FF0
3FF0
ENDCHAR
STARTCHAR 1EEC
ENCODING 7916
SWIDTH 600 0
DWIDTH 15 0
BBX 14 23 1 0
BITMAP
0700
0F80
0D80
0300
030C
F07C
F07C
F078
F078
F078
F078
F078
F078
F078
F078
F078
F078
F078
F078
FFF8
FFF8
7FF0
3FF0
ENDCHAR
STARTCHAR 1EED
ENCODING 7917
SWIDTH 600 0
DWIDTH 15 0
BBX 14 23 1 0
BITMAP
0700
0F80
0D80
0300
030C
F07C
F07C
F078
F078
F078
F078
F078
F078
F078
F078
F078
F078
F078
F078
FFF8
FFF8
7FF0
3FF0
ENDCHAR
STARTCHAR 1EEE
ENCODING 7918
SWIDTH 600 0
DWIDTH 15 0
BBX 14 23 1 0
BITMAP
0C00
3FB0
31F0
2000
000C
F07C
F07C
F078
F078
F078
F078
F078
F078
F078
F078
F078
F078
F078
F078
FFF8
FFF8
7FF0
3FF0
ENDCHAR
STARTCHAR 1EEF
ENCODING 7919
SWIDTH 600 0
DWIDTH 15 0
BBX 14 23 1 0
BITMAP
0C00
3FB0
31F0
2000
000C
F07C
F07C
F078
F078
F078
F078
F078
F078
F078
F078
F078
F078
F078
F078
FFF8
FFF8
7FF0
3FF0
ENDCHAR
STARTCHAR 1EF0
ENCODING 7920
SWIDTH 600 0
DWIDTH 15 0
BBX 14 22 1 -3
BITMAP
000C
F07C
F07C
F078
F078
F078
F078
F078
F078
F078
F078
F078
F078
F078
F078
FFF8
FFF8
7FF0
3FF0
0000
0F80
0F80
ENDCHAR
STARTCHAR 1EF1
ENCODING 7921
SWIDTH 600 0
DWIDTH 15 0
BBX 14 22 1 -3
BITMAP
000C
F07C
F07C
F078
F078
F078
F078
F078
F078
F078
F078
F078
F078
F078
F078
FFF8
FFF8
7FF0
3FF0
0000
0F80
0F80
ENDCHAR
STARTCHAR 1EF2
ENCODING 7922
SWIDTH 440 0
DWIDTH 11 0
BBX 12 21 0 0
BITMAP
7C00
7FC0
0000
F0F0
F0F0
F1F0
79E0
79E0
7BC0
3FC0
3F80
1F80
1F80
0F00
0F00
0F00
0F00
0F00
0F00
0F00
0F00
ENDCHAR
STARTCHAR 1EF3
ENCODING 7923
SWIDTH 440 0
DWIDTH 11 0
BBX 12 21 0 0
BITMAP
7C00
7FC0
0000
F0F0
F0F0
F1F0
79E0
79E0
7BC0
3FC0
3F80
1F80
1F80
0F00
0F00
0F00
0F00
0F00
0F00
0F00
0F00
ENDCHAR
STARTCHAR 1EF4
ENCODING 7924
SWIDTH 440 0
DWIDTH 11 0
BBX 12 21 0 -3
BITMAP
F0F0
F0F0
F1F0
79E0
79E0
7BC0
3FC0
3F80
1F80
1F80
0F00
0F00
0F00
0F00
0F00
0F00
0F00
0F00
0000
0F00
0F00
ENDCHAR
STARTCHAR 1EF5
ENCODING 7925
SWIDTH 440 0
DWIDTH 11 0
BBX 12 21 0 -3
BITMAP
F0F0
F0F0
F1F0
79E0
79E0
7BC0
3FC0
3F80
1F80
1F80
0F00
0F00
0F00
0F00
0F00
0F00
0F00
0F00
0000
0F00
0F00
ENDCHAR
STARTCHAR 1EF6
ENCODING 7926
SWIDTH 440 0
DWIDTH 11 0
BBX 12 23 0 0
BITMAP
0E00
0F00
1B00
0600
0600
F0F0
F0F0
F1F0
79E0
79E0
7BC0
3FC0
3F80
1F80
1F80
0F00
0F00
0F00
0F00
0F00
0F00
0F00
0F00
ENDCHAR
STARTCHAR 1EF7
ENCODING 7927
SWIDTH 440 0
DWIDTH 11 0
BBX 12 23 0 0
BITMAP
0E00
0F00
1B00
0600
0600
F0F0
F0F0
F1F0
79E0
79E0
7BC0
3FC0
3F80
1F80
1F80
0F00
0F00
0F00
0F00
0F00
0F00
0F00
0F00
ENDCHAR
STARTCHAR 1EF8
ENCODING 7928
SWIDTH 440 0
DWIDTH 11 0
BBX 12 22 0 1
BITMAP
3E20
7FE0
41C0
0000
F0F0
F0F0
F1F0
79E0
79E0
7BC0
3FC0
3F80
1F80
1F80
0F00
0F00
0F00
0F00
0F00
0F00
0F00
0F00
ENDCHAR
STARTCHAR 1EF9
ENCODING 7929
SWIDTH 440 0
DWIDTH 11 0
BBX 12 22 0 1
BITMAP
3E20
7FE0
41C0
0000
F0F0
F0F0
F1F0
79E0
79E0
7BC0
3FC0
3F80
1F80
1F80
0F00
0F00
0F00
0F00
0F00
0F00
0F00
0F00
ENDCHAR
STARTCHAR 2013
ENCODING 8211
SWIDTH 480 0
DWIDTH 12 0
BBX 12 3 0 7
BITMAP
FFF0
FFF0
FFF0
ENDCHAR
STARTCHAR 2014
ENCODING 8212
SWIDTH 1000 0
DWIDTH 25 0
BBX 25 3 0 7
BITMAP
FFFFFF80
FFFFFF80
FFFFFF80
ENDCHAR
STARTCHAR 2018
ENCODING 8216
SWIDTH 200 0
DWIDTH 5 0
BBX 5 6 0 12
BITMAP
38
30
70
E0
E0
E0
ENDCHAR
STARTCHAR 2019
ENCODING 8217
SWIDTH 200 0
DWIDTH 5 0
BBX 4 6 1 12
BITMAP
60
70
70
70
60
E0
ENDCHAR
STARTCHAR 201A
ENCODING 8218
SWIDTH 160 0
DWIDTH 4 0
BBX 4 6 0 -2
BITMAP
60
70
70
70
E0
C0
ENDCHAR
STARTCHAR 201C
ENCODING 8220
SWIDTH 360 0
DWIDTH 9 0
BBX 9 6 0 12
BITMAP
3B80
3300
7700
EE00
EE00
EE00
ENDCHAR
STARTCHAR 201D
ENCODING 8221
SWIDTH 360 0
DWIDTH 9 0
BBX 8 6 1 12
BITMAP
66
77
77
77
66
EE
ENDCHAR
STARTCHAR 201E
ENCODING 8222
SWIDTH 360 0
DWIDTH 9 0
BBX 8 6 1 -2
BITMAP
66
77
77
77
66
EE
ENDCHAR
STARTCHAR 2020
ENCODING 8224
SWIDTH 520 0
DWIDTH 13 0
BBX 13 18 0 0
BITMAP
0700
0700
0700
0700
0700
FFF8
FFF8
FFF8
0700
0700
0700
0700
0700
0700
0700
0700
0700
0700
ENDCHAR
STARTCHAR 2021
ENCODING 8225
SWIDTH 520 0
DWIDTH 13 0
BBX 13 18 0 0
BITMAP
0700
0700
0700
0700
0700
FFF8
FFF8
FFF8
0700
0700
FFF8
FFF8
FFF8
0700
0700
0700
0700
0700
ENDCHAR
STARTCHAR 2022
ENCODING 8226
SWIDTH 200 0
DWIDTH 5 0
BBX 5 5 0 7
BITMAP
F8
F8
F8
F8
F8
ENDCHAR
STARTCHAR 2026
ENCODING 8230
SWIDTH 480 0
DWIDTH 12 0
BBX 11 3 1 0
BITMAP
EEE0
EEE0
EEE0
ENDCHAR
STARTCHAR 2030
ENCODING 8240
SWIDTH 880 0
DWIDTH 22 0
BBX 20 18 1 0
BITMAP
787000
FC7000
FC6000
CCE000
FCC000
FDC000
018000
038000
030000
070000
070000
0E0000
0EF9F0
1DFBF0
1DDB30
39DB30
39FBF0
70FBF0
ENDCHAR
STARTCHAR 2039
ENCODING 8249
SWIDTH 240 0
DWIDTH 6 0
BBX 5 10 1 3
BITMAP
08
18
70
E0
C0
C0
70
38
18
08
ENDCHAR
STARTCHAR 203A
ENCODING 8250
SWIDTH 240 0
DWIDTH 6 0
BBX 5 10 1 3
BITMAP
80
C0
E0
78
38
38
70
E0
C0
80
ENDCHAR
STARTCHAR 2044
ENCODING 8260
SWIDTH 320 0
DWIDTH 8 0
BBX 11 18 -1 0
BITMAP
0060
00C0
00C0
0180
0180
0300
0300
0600
0600
0E00
0C00
1C00
1800
3800
3000
7000
6000
E000
ENDCHAR
STARTCHAR 20AB
ENCODING 8363
SWIDTH 440 0
DWIDTH 11 0
BBX 11 18 0 0
BITMAP
7F80
7FC0
7FE0
7FE0
70E0
70E0
70E0
FCE0
FCE0
70E0
70E0
7FE0
7FE0
7FC0
7F80
7FE0
7FE0
7FE0
ENDCHAR
STARTCHAR 20AC
ENCODING 8364
SWIDTH 600 0
DWIDTH 15 0
BBX 13 18 1 0
BITMAP
3FE0
3FF0
3FF8
3FF8
3878
3800
FF00
FF00
FF00
3800
FF00
FF00
3800
3878
3FF8
3FF8
3FF0
3FF0
ENDCHAR
STARTCHAR 2122
ENCODING 8482
SWIDTH 600 0
DWIDTH 15 0
BBX 15 9 0 9
BITMAP
7CCC
FDCE
F7FE
31FE
31B6
31B6
31B6
3186
3186
ENDCHAR
STARTCHAR 215B
ENCODING 8539
SWIDTH 640 0
DWIDTH 16 0
BBX 14 18 1 0
BITMAP
3060
7060
F0E0
F0C0
31C0
3180
3380
3300
3700
067C
06FC
0CCC
0CCC
187C
18CC
30CC
30FC
707C
ENDCHAR
STARTCHAR 215C
ENCODING 8540
SWIDTH 680 0
DWIDTH 17 0
BBX 16 18 1 0
BITMAP
F818
FC30
0C30
0C60
7C60
7CC0
0CC0
7D80
FD80
03BE
037F
0777
0663
0E3E
0C63
1C63
187F
383E
ENDCHAR
STARTCHAR 215D
ENCODING 8541
SWIDTH 680 0
DWIDTH 17 0
BBX 16 18 1 0
BITMAP
FC18
F830
C030
C060
FC60
FCC0
0CC0
7D80
FD80
03BE
037F
0777
0663
0E3E
0C63
1C63
187F
183E
ENDCHAR
STARTCHAR 215E
ENCODING 8542
SWIDTH 640 0
DWIDTH 16 0
BBX 14 18 1 0
BITMAP
F860
F8E0
18C0
19C0
3980
3180
3300
7300
6600
0678
0CFC
0CCC
18CC
187C
38CC
30CC
70FC
607C
ENDCHAR
STARTCHAR 2190
ENCODING 8592
SWIDTH 400 0
DWIDTH 10 0
BBX 10 8 0 3
BITMAP
1800
7800
E000
FFC0
FFC0
7000
3800
1800
ENDCHAR
STARTCHAR 2191
ENCODING 8593
SWIDTH 360 0
DWIDTH 9 0
BBX 9 10 0 3
BITMAP
1C00
3E00
7F00
FF80
DD80
1C00
1C00
1C00
1C00
1C00
ENDCHAR
STARTCHAR 2192
ENCODING 8594
SWIDTH 400 0
DWIDTH 10 0
BBX 10 8 0 3
BITMAP
0300
0380
01C0
FFC0
FFC0
01C0
0380
0300
ENDCHAR
STARTCHAR 2193
ENCODING 8595
SWIDTH 360 0
DWIDTH 9 0
BBX 9 10 0 3
BITMAP
1C00
1C00
1C00
1C00
1C00
1C00
FF80
7F00
3F00
1E00
ENDCHAR
STARTCHAR 2194
ENCODING 8596
SWIDTH 520 0
DWIDTH 13 0
BBX 13 8 0 3
BITMAP
18E0
7870
E038
FFF8
FFF8
7038
38F0
18C0
ENDCHAR
STARTCHAR 2195
ENCODING 8597
SWIDTH 360 0
DWIDTH 9 0
BBX 9 12 0 3
BITMAP
3E00
7F00
7F80
FD80
1C00
1C00
1C00
1C00
FF80
7F00
3F00
1E00
ENDCHAR
STARTCHAR 2196
ENCODING 8598
SWIDTH 400 0
DWIDTH 10 0
BBX 8 8 1 3
BITMAP
7C
FC
F0
F8
DE
CF
47
02
ENDCHAR
STARTCHAR 2197
ENCODING 8599
SWIDTH 400 0
DWIDTH 10 0
BBX 9 8 1 3
BITMAP
3E00
3F00
0F80
1F00
7B00
F300
E200
4000
ENDCHAR
STARTCHAR 2198
ENCODING 8600
SWIDTH 400 0
DWIDTH 10 0
BBX 10 8 0 3
BITMAP
6000
F180
3D80
1F80
0F80
07C0
1F80
1F00
ENDCHAR
STARTCHAR 2199
ENCODING 8601
SWIDTH 400 0
DWIDTH 10 0
BBX 9 8 1 3
BITMAP
0300
C780
DE00
FC00
F800
F000
FC00
7C00
ENDCHAR
STARTCHAR 220F
ENCODING 8719
SWIDTH 480 0
DWIDTH 12 0
BBX 12 18 0 0
BITMAP
FFF0
FFF0
FFF0
19C0
19C0
19C0
19C0
19C0
19C0
19C0
19C0
19C0
19C0
19C0
19C0
19C0
19C0
19C0
ENDCHAR
STARTCHAR 2211
ENCODING 8721
SWIDTH 400 0
DWIDTH 10 0
BBX 10 18 0 0
BITMAP
FFC0
FFC0
FF80
7000
7000
3800
3800
1C00
1C00
0E00
1C00
1800
3800
3000
7000
FF80
FFC0
FFC0
ENDCHAR
STARTCHAR 2212
ENCODING 8722
SWIDTH 400 0
DWIDTH 10 0
BBX 10 3 0 7
BITMAP
FFC0
FFC0
FFC0
ENDCHAR
STARTCHAR 221A
ENCODING 8730
SWIDTH 520 0
DWIDTH 13 0
BBX 20 23 0 0
BITMAP
001FE0
001FF0
003FF0
003800
003800
003800
003000
003000
003000
007000
007000
007000
007000
786000
F86000
FC6000
1CE000
0CE000
0EE000
0EE000
07C000
07C000
07C000
ENDCHAR
STARTCHAR 2260
ENCODING 8800
SWIDTH 400 0
DWIDTH 10 0
BBX 10 11 0 3
BITMAP
0700
0700
FFC0
FFC0
FFC0
0E00
FFC0
FFC0
FFC0
1C00
1800
ENDCHAR
STARTCHAR 2264
ENCODING 8804
SWIDTH 360 0
DWIDTH 9 0
BBX 9 17 0 1
BITMAP
0180
0380
0F80
3F00
FC00
F000
E000
F800
7E00
3F80
0F80
0380
0080
0000
FF80
FF80
FF80
ENDCHAR
STARTCHAR 2265
ENCODING 8805
SWIDTH 360 0
DWIDTH 9 0
BBX 9 18 0 0
BITMAP
8000
C000
F000
FC00
3F00
0F80
0380
0180
0780
1F80
7E00
FC00
F000
C000
0000
FF80
FF80
FF80
ENDCHAR
ENDFONT
